<?xml version="1.0" encoding="UTF-8"?>
<!DOCTYPE svg PUBLIC "-//W3C//DTD SVG 1.1//EN" "http://www.w3.org/Graphics/SVG/1.1/DTD/svg11.dtd">
<!-- Creator: CorelDRAW 2020 (64-Bit) -->
<svg xmlns="http://www.w3.org/2000/svg" xml:space="preserve" width="600px" height="311px" version="1.1" style="shape-rendering:geometricPrecision; text-rendering:geometricPrecision; image-rendering:optimizeQuality; fill-rule:evenodd; clip-rule:evenodd"
viewBox="0 0 70.29 36.44"
 xmlns:xlink="http://www.w3.org/1999/xlink"
 xmlns:xodm="http://www.corel.com/coreldraw/odm/2003">
 <defs>
  <style type="text/css">
   <![CDATA[
    .str0 {stroke:#FEFEFE;stroke-width:0.08;stroke-miterlimit:22.9256}
    .str2 {stroke:#FEFEFE;stroke-width:0.08;stroke-miterlimit:22.9256}
    .str1 {stroke:#EBECEC;stroke-width:0.08;stroke-miterlimit:22.9256}
    .fil16 {fill:#FEFEFE}
    .fil28 {fill:#EBECEC}
    .fil29 {fill:#D9DADA}
    .fil27 {fill:#C5C6C6}
    .fil17 {fill:#667378}
    .fil24 {fill:#7690C9}
    .fil33 {fill:#56698F}
    .fil18 {fill:#374C54}
    .fil13 {fill:#3A72B7}
    .fil15 {fill:#2E65AD}
    .fil37 {fill:#829E27}
    .fil32 {fill:#8FBF32}
    .fil14 {fill:#F9B776}
    .fil26 {fill:#F9B776}
    .fil43 {fill:#FEFEFE;fill-rule:nonzero}
    .fil0 {fill:#AEC8E9;fill-rule:nonzero}
    .fil45 {fill:#AEC8E9;fill-rule:nonzero}
    .fil40 {fill:#3A72B7;fill-rule:nonzero}
    .fil46 {fill:#2E65AD;fill-rule:nonzero}
    .fil42 {fill:#829E27;fill-rule:nonzero}
    .fil47 {fill:#8FBF32;fill-rule:nonzero}
    .fil31 {fill:#F0F0F0;fill-rule:nonzero}
    .fil44 {fill:#FCFCFC;fill-rule:nonzero}
    .fil41 {fill:white;fill-rule:nonzero}
    .fil11 {fill:url(#id2)}
    .fil8 {fill:url(#id3)}
    .fil22 {fill:url(#id4)}
    .fil4 {fill:url(#id5)}
    .fil3 {fill:url(#id6)}
    .fil9 {fill:url(#id7)}
    .fil19 {fill:url(#id8)}
    .fil39 {fill:url(#id9)}
    .fil34 {fill:url(#id10)}
    .fil12 {fill:url(#id11)}
    .fil23 {fill:url(#id12)}
    .fil35 {fill:url(#id13)}
    .fil30 {fill:url(#id14)}
    .fil21 {fill:url(#id15)}
    .fil25 {fill:url(#id16)}
    .fil10 {fill:url(#id17)}
    .fil38 {fill:url(#id18)}
    .fil6 {fill:url(#id19)}
    .fil36 {fill:url(#id20)}
    .fil7 {fill:url(#id21)}
    .fil20 {fill:url(#id22)}
    .fil5 {fill:url(#id23)}
    .fil2 {fill:url(#id24)}
    .fil1 {fill:url(#id25)}
   ]]>
  </style>
   <clipPath id="id0">
    <path d="M24.29 20.48l-1.22 0c-0.02,0 -0.03,-0.01 -0.03,-0.03l0 -1.6 1.28 0 0 1.6c0,0.02 -0.02,0.03 -0.03,0.03zm0.03 -1.8l-1.28 0 0 -1.66 1.28 0 0 1.66zm0 -1.83l-1.28 0 0 -1.63c0,-0.02 0.01,-0.03 0.03,-0.03l1.22 0c0.01,0 0.03,0.01 0.03,0.03l0 1.63 0 0z"/>
   </clipPath>
   <clipPath id="id1">
    <path d="M25.82 20.48l-1.22 0c-0.01,0 -0.03,-0.01 -0.03,-0.03l0 -1.6 1.28 0 0 1.6c0,0.02 -0.01,0.03 -0.03,0.03zm0.03 -1.8l-1.28 0 0 -1.66 1.28 0 0 1.66zm0 -1.83l-1.28 0 0 -1.63c0,-0.02 0.02,-0.03 0.03,-0.03l1.22 0c0.02,0 0.03,0.01 0.03,0.03l0 1.63 0 0z"/>
   </clipPath>
  <linearGradient id="id2" gradientUnits="userSpaceOnUse" x1="51.12" y1="33.43" x2="50.42" y2="33.43">
   <stop offset="0" style="stop-opacity:1; stop-color:#F9B776"/>
   <stop offset="1" style="stop-opacity:1; stop-color:#F47960"/>
  </linearGradient>
  <linearGradient id="id3" gradientUnits="userSpaceOnUse" xlink:href="#id2" x1="48.19" y1="33.45" x2="47.37" y2="33.45">
  </linearGradient>
  <linearGradient id="id4" gradientUnits="userSpaceOnUse" x1="56.82" y1="34.93" x2="59.03" y2="34.93">
   <stop offset="0" style="stop-opacity:1; stop-color:#53D8FF"/>
   <stop offset="1" style="stop-opacity:1; stop-color:#3840F7"/>
  </linearGradient>
  <linearGradient id="id5" gradientUnits="userSpaceOnUse" x1="21.05" y1="-28.44" x2="23.16" y2="49.53">
   <stop offset="0" style="stop-opacity:1; stop-color:#FFFEEA"/>
   <stop offset="1" style="stop-opacity:1; stop-color:#FBEAEE"/>
  </linearGradient>
  <linearGradient id="id6" gradientUnits="userSpaceOnUse" xlink:href="#id5" x1="21.05" y1="-28.45" x2="23.16" y2="49.54">
  </linearGradient>
  <linearGradient id="id7" gradientUnits="userSpaceOnUse" x1="49.84" y1="27.26" x2="47.42" y2="27.26">
   <stop offset="0" style="stop-opacity:1; stop-color:#7690C9"/>
   <stop offset="1" style="stop-opacity:1; stop-color:#2E65AD"/>
  </linearGradient>
  <linearGradient id="id8" gradientUnits="userSpaceOnUse" xlink:href="#id2" x1="49.91" y1="17.32" x2="47.59" y2="18.57">
  </linearGradient>
  <linearGradient id="id9" gradientUnits="userSpaceOnUse" xlink:href="#id2" x1="25.99" y1="13.08" x2="26.61" y2="6.24">
  </linearGradient>
  <linearGradient id="id10" gradientUnits="userSpaceOnUse" xlink:href="#id2" x1="35.04" y1="21.41" x2="58.06" y2="7">
  </linearGradient>
  <linearGradient id="id11" gradientUnits="userSpaceOnUse" xlink:href="#id7" x1="51.49" y1="27.17" x2="48.06" y2="27.17">
  </linearGradient>
  <linearGradient id="id12" gradientUnits="userSpaceOnUse" xlink:href="#id4" x1="64.69" y1="33.77" x2="66.35" y2="32.33">
  </linearGradient>
  <linearGradient id="id13" gradientUnits="userSpaceOnUse" xlink:href="#id7" x1="29.46" y1="20.36" x2="21.58" y2="20.36">
  </linearGradient>
  <linearGradient id="id14" gradientUnits="userSpaceOnUse" x1="60.18" y1="23.58" x2="61.71" y2="18.79">
   <stop offset="0" style="stop-opacity:1; stop-color:#DB9353"/>
   <stop offset="1" style="stop-opacity:1; stop-color:#8F2E38"/>
  </linearGradient>
  <linearGradient id="id15" gradientUnits="userSpaceOnUse" x1="48.42" y1="10.88" x2="45.37" y2="9.97">
   <stop offset="0" style="stop-opacity:1; stop-color:#F9B776"/>
   <stop offset="0.968627" style="stop-opacity:1; stop-color:#F7986B"/>
   <stop offset="1" style="stop-opacity:1; stop-color:#F47960"/>
  </linearGradient>
  <linearGradient id="id16" gradientUnits="userSpaceOnUse" xlink:href="#id7" x1="60.92" y1="23.82" x2="56.26" y2="23.82">
  </linearGradient>
  <linearGradient id="id17" gradientUnits="userSpaceOnUse" x1="47.35" y1="30.87" x2="56.28" y2="40.84">
   <stop offset="0" style="stop-opacity:1; stop-color:#CB236D"/>
   <stop offset="1" style="stop-opacity:1; stop-color:#4C246D"/>
  </linearGradient>
  <linearGradient id="id18" gradientUnits="userSpaceOnUse" xlink:href="#id2" x1="26.69" y1="13" x2="27.62" y2="7.24">
  </linearGradient>
  <linearGradient id="id19" gradientUnits="userSpaceOnUse" xlink:href="#id5" x1="57.44" y1="-27.39" x2="21.54" y2="43.58">
  </linearGradient>
  <linearGradient id="id20" gradientUnits="userSpaceOnUse" xlink:href="#id2" x1="23.93" y1="18.22" x2="17.27" y2="18.22">
  </linearGradient>
  <linearGradient id="id21" gradientUnits="userSpaceOnUse" xlink:href="#id17" x1="45.23" y1="32.77" x2="54.29" y2="42.63">
  </linearGradient>
  <linearGradient id="id22" gradientUnits="userSpaceOnUse" xlink:href="#id2" x1="46.28" y1="12.79" x2="44.02" y2="15.26">
  </linearGradient>
  <linearGradient id="id23" gradientUnits="userSpaceOnUse" x1="28.15" y1="26.15" x2="77.22" y2="-6.1">
   <stop offset="0" style="stop-opacity:1; stop-color:#FDF53F"/>
   <stop offset="1" style="stop-opacity:1; stop-color:#D93C65"/>
  </linearGradient>
  <linearGradient id="id24" gradientUnits="userSpaceOnUse" xlink:href="#id5" x1="21.05" y1="-28.44" x2="23.16" y2="49.54">
  </linearGradient>
  <linearGradient id="id25" gradientUnits="userSpaceOnUse" xlink:href="#id23" x1="13.55" y1="26.27" x2="-35.51" y2="-5.98">
  </linearGradient>
 </defs>
 <g id="Layer_x0020_1">
  <metadata id="CorelCorpID_0Corel-Layer"/>
  <path class="fil0" d="M43.21 1.72c0,0 -13.47,-4.47 -23.65,1 -10.17,5.47 -8.64,13.2 -8.64,13.2 0,0 -8.67,3.37 -10.5,10.67 -1.83,7.3 2.86,9.76 2.86,9.76l62.74 0.09c0,0 9.93,-20.1 -0.48,-29.58 -10.4,-9.47 -22.33,-5.14 -22.33,-5.14z"/>
  <path class="fil1" d="M8.95 26.28l3.24 0c0.2,0 0.35,-0.15 0.35,-0.35l0 -3.24c0,-0.19 -0.15,-0.35 -0.35,-0.35l-3.24 0c-0.19,0 -0.35,0.16 -0.35,0.35l0 3.24c0,0.2 0.16,0.35 0.35,0.35z"/>
  <path class="fil2" d="M26.04 20.8l-3.19 0c-0.03,0 -0.05,-0.02 -0.05,-0.05l0 -5.83c0,-0.03 0.02,-0.05 0.05,-0.05l3.19 0c0.03,0 0.05,0.02 0.05,0.05l0 1.93 -0.24 0 0 -1.63c0,-0.02 -0.01,-0.03 -0.03,-0.03l-1.22 0c-0.01,0 -0.03,0.01 -0.03,0.03l0 1.63 -0.25 0 0 -1.63c0,-0.02 -0.02,-0.03 -0.03,-0.03l-1.22 0c-0.02,0 -0.03,0.01 -0.03,0.03l0 1.63 -0.21 0 0 0.17 0.21 0 0 1.66 -0.21 0 0 0.17 0.21 0 0 1.6c0,0.02 0.01,0.03 0.03,0.03l1.22 0c0.01,0 0.03,-0.01 0.03,-0.03l0 -1.6 0.25 0 0 1.6c0,0.02 0.02,0.03 0.03,0.03l1.22 0c0.02,0 0.03,-0.01 0.03,-0.03l0 -1.6 0.24 0 0 1.9c0,0.03 -0.02,0.05 -0.05,0.05zm0.05 -2.12l-0.24 0 0 -1.66 0.24 0 0 1.66zm-1.52 0l-0.25 0 0 -1.66 0.25 0 0 1.66z"/>
  <g style="clip-path:url(#id0)">
   <image x="23" y="15.15" width="1.36" height="5.37" xlink:href="for_main_4_Images\for_main_4_ImgID1.png"/>
  </g>
  <g style="clip-path:url(#id1)">
   <image x="24.54" y="15.15" width="1.36" height="5.37" xlink:href="for_main_4_Images\for_main_4_ImgID2.png"/>
  </g>
  <polygon class="fil3" points="26.09,17.02 25.85,17.02 24.57,17.02 24.32,17.02 23.04,17.02 22.83,17.02 22.83,16.85 23.04,16.85 24.32,16.85 24.57,16.85 25.85,16.85 26.09,16.85 "/>
  <polygon class="fil4" points="26.09,18.85 25.85,18.85 24.57,18.85 24.32,18.85 23.04,18.85 22.83,18.85 22.83,18.68 23.04,18.68 24.32,18.68 24.57,18.68 25.85,18.68 26.09,18.68 "/>
  <path class="fil5" d="M32.75 26.17l-3.24 0c-0.19,0 -0.35,-0.16 -0.35,-0.36l0 -3.23c0,-0.2 0.16,-0.35 0.35,-0.35l3.24 0c0.2,0 0.35,0.15 0.35,0.35l0 3.23c0,0.2 -0.15,0.36 -0.35,0.36z"/>
  <polygon class="fil6" points="60.27,13.45 60.05,13.45 58.64,13.45 58.36,13.45 56.96,13.45 56.7,13.45 56.7,13.24 56.96,13.24 58.36,13.24 58.64,13.24 60.05,13.24 60.27,13.24 "/>
  <path class="fil7" d="M48.11 33.51c0,0 0.09,0.53 0.14,1.07 0.02,0.2 -0.14,0.38 -0.35,0.39 -0.71,0.03 -2.23,0.09 -2.77,0.07 -0.08,-0.01 -0.14,-0.09 -0.11,-0.17 0.03,-0.06 0.08,-0.11 0.14,-0.14l2.51 -1.15 0.44 -0.07z"/>
  <path class="fil8" d="M48.19 33.19l-0.08 0.64c0,0 -0.44,0.21 -0.74,-0.02l0.18 -0.72 0.64 0.1z"/>
  <path class="fil9" d="M48.13 21.09c0.03,0.17 0.18,8.39 -0.7,12.07 -0.02,0.06 0.01,0.12 0.07,0.15 0.14,0.05 0.4,0.13 0.72,0.14 0.09,0 0.18,-0.06 0.21,-0.15 0.25,-0.86 1.45,-5.14 1.61,-9.23 0.18,-4.57 0,-0.15 0,-0.15l-0.1 -2.83 -1.81 0z"/>
  <path class="fil10" d="M50.99 33.79c0,0 0.15,0.27 0.3,0.99 0.02,0.13 -0.07,0.25 -0.2,0.27 -0.23,0.02 -0.59,0.05 -0.88,0.05 -0.13,0 -0.24,-0.12 -0.22,-0.25 0.03,-0.26 0.13,-0.7 0.44,-1.03l0.56 -0.03z"/>
  <path class="fil11" d="M51.12 32.96l-0.17 0.97c0,0 -0.18,0.13 -0.53,0.04l0.08 -1.05 0.62 0.04z"/>
  <path class="fil12" d="M51.61 21.35c0.71,4.33 -0.16,10.71 -0.45,11.96 -0.02,0.08 -0.08,0.13 -0.16,0.15 -0.13,0.02 -0.35,0.04 -0.56,-0.03 -0.08,-0.02 -0.13,-0.08 -0.13,-0.16 -0.04,-1.01 0.03,-7.21 -0.64,-9.66 -0.03,-0.12 -0.11,-0.23 -0.21,-0.3l-1.3 -0.93 -0.1 -1.49 3.55 0.46z"/>
  <path class="fil13" d="M47.03 13.13c2.15,-0.03 4.53,0.57 4.53,0.57 0.64,3.74 0.11,8.06 0.11,8.06 -1.67,0.44 -3.55,-0.27 -3.55,-0.27 -0.28,-1.56 -1.57,-5.97 -1.57,-5.97 -1.05,-0.13 -1.92,-0.43 -2.63,-0.83 0.55,-0.63 0.8,-1.44 0.91,-1.91 0.76,0.24 1.53,0.36 2.2,0.35z"/>
  <path class="fil14" d="M40.67 9.96c0.21,-0.25 0.48,-0.13 0.48,-0.13 0.32,1.33 1.98,2.42 3.68,2.95 -0.11,0.47 -0.36,1.28 -0.91,1.91 -2.83,-1.6 -3.25,-4.73 -3.25,-4.73z"/>
  <path class="fil14" d="M40.72 10.03c-0.02,0.07 0.23,0.17 0.39,-0.12 0,-0.13 0.09,-0.72 0,-0.84 -0.44,-0.59 -1.29,-1.34 -1.29,-1.34 -0.14,0.14 -0.02,0.28 -0.02,0.28l0.41 0.43c-0.09,0.15 -0.19,0.28 -0.24,0.47 -0.04,0.15 -0.02,0.3 0.06,0.43 0.07,0.13 0.17,0.3 0.26,0.43 0.18,0.25 0.43,0.26 0.43,0.26z"/>
  <path class="fil14" d="M40.39 8.72l0.38 0.31 0.12 0.32 -0.34 0.37c0,0 -0.11,-0.63 -0.2,-0.76 -0.08,-0.14 -0.04,-0.2 0.04,-0.24z"/>
  <path class="fil15" d="M50.73 15.78l0.83 -2.08c0,0 2.01,1.36 2.34,3.1 -0.38,0.02 -1.07,0.12 -1.75,0.46 -0.15,-0.81 -1.42,-1.48 -1.42,-1.48z"/>
  <path class="fil14" d="M48.97 17.74c0,0 2.26,1.28 3.02,0.19 0.16,-0.23 0.2,-0.45 0.16,-0.67 0.68,-0.34 1.37,-0.44 1.75,-0.46 0.1,0.52 0.04,1.07 -0.26,1.63 -1.34,2.44 -4.97,-0.13 -4.97,-0.13l0.3 -0.56z"/>
  <polygon class="fil16" points="47.85,15.27 43.57,14.93 44.05,14.43 48.07,14.97 "/>
  <path class="fil17" d="M49.11 19.52l-1.23 -4.3c-0.02,-0.05 -0.06,-0.08 -0.11,-0.09 -0.22,-0.03 -0.87,-0.1 -1.61,-0.16 -0.9,-0.08 -1.95,-0.14 -2.57,-0.09 -0.09,0.01 -0.15,0.1 -0.11,0.18 0.36,0.72 1.82,3.64 2.55,4.6 0.02,0.03 0.06,0.05 0.1,0.05l2.86 -0.03c0.08,0 0.14,-0.08 0.12,-0.16z"/>
  <path class="fil17" d="M48.22 14.89l-4.15 -0.52c-0.06,0 -0.11,0.02 -0.15,0.06 -0.02,0.03 0,0.08 0.04,0.08l4.17 0.52 0.09 -0.14z"/>
  <path class="fil18" d="M47.77 15.13l1.3 4.52 0.47 -0.28c0.05,-0.03 0.07,-0.1 0.05,-0.15l-1.3 -4.31c-0.01,-0.02 -0.04,-0.03 -0.07,-0.02l-0.45 0.24z"/>
  <path class="fil19" d="M49.5 18.79c0.08,-0.03 -0.13,-0.98 -0.29,-1.2 -0.16,-0.2 -0.25,-0.51 -0.7,-0.44 -0.44,0.07 -0.97,0.26 -0.97,0.26 0,0 0.03,0.33 0.37,0.22l-0.21 0.17c0,0 0.03,0.26 0.31,0.12l-0.19 0.21c0,0 0.1,0.17 0.33,0.08 1.06,-0.39 0.75,0.67 1.35,0.58z"/>
  <path class="fil14" d="M49.21 11.38l0.68 1.98c0.01,0.04 0,0.07 -0.03,0.09 -0.19,0.1 -0.86,0.4 -1.67,-0.11 -0.08,-0.06 -0.14,-0.14 -0.15,-0.24l-0.23 -1.72 1.4 0z"/>
  <path class="fil20" d="M47.72 9.55c0,0 -0.75,1.42 -0.66,1.99 0.1,0.57 1.03,0.53 1.85,0.06l0.56 -1.53 -1.75 -0.52z"/>
  <path class="fil17" d="M48.87 10.85c-0.03,-0.01 -0.05,-0.05 -0.03,-0.08 0.06,-0.09 0.18,-0.28 0.21,-0.45 0,0 0.14,-0.08 -0.34,-0.2 -0.48,-0.11 -1.2,-0.29 -1.35,-0.7 -0.14,-0.4 0.24,-1.4 0.86,-0.6 0.02,0.03 0.07,0.03 0.09,0 0.1,-0.13 0.36,-0.4 0.73,-0.24 0.35,0.16 0.39,0.41 0.38,0.54 0,0.03 0.03,0.06 0.07,0.05 0.17,-0.03 0.59,-0.06 0.78,0.37 0.17,0.35 0.06,0.55 -0.03,0.65 -0.03,0.03 -0.02,0.08 0.02,0.1 0.11,0.03 0.26,0.13 0.25,0.4 -0.02,0.37 -0.44,0.33 -0.55,0.32 -0.02,0 -0.04,0 -0.06,0.02 -0.1,0.11 -0.55,0.58 -1.04,0.64 -0.05,0 -0.08,-0.04 -0.07,-0.08l0.22 -0.62c0.01,-0.03 -0.01,-0.06 -0.03,-0.07l-0.11 -0.05z"/>
  <path class="fil21" d="M48.78 10.94c0,0 0.54,-0.37 0.58,-0.06 0.04,0.31 -0.48,0.45 -0.74,0.34l0.16 -0.28z"/>
  <path class="fil18" d="M57.9 10.24c0,0 0.37,0.65 0.95,0.9 0.35,0.16 1.02,0.41 1.11,1.13 0.05,0.37 0.32,0.67 0.69,0.72 0.92,0.14 2.33,0.62 2.56,2.21 0.17,1.22 -0.45,1.68 -1.1,1.84 -0.48,0.12 -0.8,0.58 -0.7,1.06 0.09,0.47 -0.05,1 -0.85,1.42 -1.79,0.95 -3.59,-2.24 -3.59,-2.24l-0.37 -5.58 1.3 -1.46z"/>
  <path class="fil14" d="M57.6 27.05l-0.13 0.73c0,0 0.42,4.23 0.49,5.93 0.02,0.26 -0.05,0.52 -0.19,0.75l-0.73 1.18 1.85 -1.09 0.03 -0.23 -0.3 -0.41 0.4 -4.74c0.02,-0.28 -0.04,-0.56 -0.17,-0.81l-0.38 -0.71 -0.87 -0.6z"/>
  <path class="fil22" d="M56.92 35.81l0.59 0c0.11,0 0.21,-0.05 0.28,-0.14 0.18,-0.24 0.56,-0.7 0.75,-0.71 0.24,-0.02 0.21,0.85 0.21,0.85l0.14 0 0.17 -1.08c0.05,-0.27 -0.09,-0.54 -0.33,-0.67 0,0 -0.06,0.41 -0.36,0.6 -0.31,0.18 -1.24,0.84 -1.24,0.84 0,0 -0.11,-0.02 -0.24,0 -0.18,0.03 -0.16,0.31 0.03,0.31z"/>
  <path class="fil14" d="M60.04 27.32l0.39 0.64c0,0 3.09,2.92 4.26,4.14 0.18,0.2 0.3,0.44 0.35,0.7l0.23 1.37 0.67 -2.04 -0.12 -0.19 -0.5 -0.12 -2.82 -3.83c-0.16,-0.22 -0.39,-0.4 -0.65,-0.5l-0.76 -0.29 -1.05 0.12z"/>
  <path class="fil23" d="M65.29 34.38l0.44 -0.39c0.08,-0.07 0.13,-0.18 0.12,-0.29 -0.02,-0.3 -0.04,-0.9 0.09,-1.03 0.18,-0.17 0.73,0.5 0.73,0.5l0.1 -0.09 -0.58 -0.93c-0.15,-0.23 -0.43,-0.35 -0.69,-0.28 0,0 0.23,0.35 0.12,0.69 -0.11,0.33 -0.38,1.44 -0.38,1.44 0,0 -0.1,0.06 -0.18,0.16 -0.12,0.15 0.08,0.34 0.23,0.22z"/>
  <path class="fil24" d="M58.58 19.79c-0.63,-2.67 0.7,-4.67 0.7,-4.67 -0.76,-0.73 -1.94,-0.78 -2.48,-0.76 -0.18,0.01 -0.36,0.08 -0.5,0.19 -0.43,0.35 -1.31,1.17 -1.15,1.93 0.13,0.59 1.24,3.52 1.24,3.52 0,0 1.02,0.49 2.19,-0.21z"/>
  <path class="fil25" d="M59.98 21.11c-0.26,-0.77 -1.4,-1.32 -1.4,-1.32 -1.17,0.7 -2.19,0.21 -2.19,0.21 0,0 -0.23,0.88 -0.07,1.7 0.15,0.82 1.15,6.08 1.15,6.08 1.57,0.32 3.99,-0.32 3.99,-0.32 -1,-1.78 -1.22,-5.57 -1.48,-6.35z"/>
  <path class="fil14" d="M57.39 12.43l0.51 2.14c0.05,0.2 -0.13,0.26 -0.34,0.29 -0.49,0.07 -0.85,-0.11 -0.92,-0.45 0,-0.03 -0.02,-0.06 -0.02,-0.09l-0.22 -1.6c-0.02,-0.13 0.05,-0.25 0.17,-0.3l0.42 -0.19c0.17,-0.07 0.35,0.02 0.4,0.2z"/>
  <path class="fil14" d="M56.4 10.32c0,0 -0.54,0.37 -0.78,1.32 -0.23,0.94 0.15,1.28 0.54,1.25 0.39,-0.02 0.96,-0.14 1.45,-0.81 0.49,-0.68 -0.49,-2.21 -1.21,-1.76z"/>
  <path class="fil18" d="M57.11 11.7c0,0 0.2,-1.35 -0.92,-1.15l-0.22 0.24c0,0 -0.55,-0.62 0.06,-1.08 0.6,-0.47 1.45,-0.35 1.91,0.5 0.47,0.85 0.64,1.45 0.25,1.97 -0.39,0.53 -0.69,0.08 -0.69,0.08 0,0 0.18,-0.46 0.03,-0.65 -0.15,-0.2 -0.34,0.11 -0.34,0.11l-0.08 -0.02z"/>
  <path class="fil26" d="M57.27 11.81c0,0 0.1,-0.69 0.45,-0.49 0.36,0.2 -0.13,0.65 -0.32,0.8l-0.13 -0.31z"/>
  <path class="fil27" d="M58.42 20.46c-0.05,0.01 -0.07,0.07 -0.05,0.12l1.06 2.02c0.01,0.04 0.05,0.05 0.09,0.04l3.46 -1c0.04,-0.01 0.06,-0.05 0.05,-0.1l-0.59 -2.06c-0.02,-0.04 -0.06,-0.06 -0.1,-0.05l-3.92 1.03z"/>
  <path class="fil28" d="M58.64 20.22c-0.05,0.01 -0.07,0.07 -0.06,0.11l0.85 2.3c0.02,0.04 0.06,0.06 0.1,0.05l3.45 -0.99c0.04,-0.01 0.07,-0.06 0.06,-0.1l-0.48 -2.21c-0.01,-0.05 -0.06,-0.08 -0.1,-0.07l-3.82 0.91z"/>
  <path class="fil29" d="M58.94 19.99c-0.06,0.01 -0.1,0.07 -0.08,0.13l0.57 2.48c0.02,0.06 0.08,0.09 0.13,0.07l3.4 -0.98c0.05,-0.01 0.08,-0.07 0.07,-0.12l-0.52 -2.03c-0.02,-0.05 -0.07,-0.08 -0.12,-0.07l-3.45 0.52z"/>
  <path class="fil15" d="M61.69 20.94c0.72,-3.06 -2.41,-5.82 -2.41,-5.82 -0.75,0.17 -0.94,0.66 -0.74,1.38 1.48,1.38 2.03,2.94 2.14,4.26 0.2,-0.06 0.68,-0.15 1.01,0.18z"/>
  <path class="fil30" d="M60.68 20.76c0.14,0.57 0.13,1 0.1,1.21 0,0.08 -0.07,0.14 -0.14,0.14 -0.09,0.01 -0.21,0.02 -0.32,0.02 -0.12,0.01 -0.25,-0.06 -0.34,-0.13 -0.04,-0.03 -0.1,0.02 -0.07,0.07 0.06,0.13 0.23,0.24 0.34,0.31 0.04,0.02 0.04,0.08 -0.01,0.1l-0.49 0.14c0.8,0.75 1.34,-0.09 1.34,-0.09 0.35,-0.55 0.53,-1.09 0.6,-1.59 -0.33,-0.33 -0.81,-0.24 -1.01,-0.18z"/>
  <polygon class="fil31" points="54.16,13.15 54.18,13.14 54.16,13.12 54.15,13.13 "/>
  <path class="fil31" d="M61.91 16.73c0.41,-0.17 0.71,-0.63 0.72,-1.12 0,-0.45 -0.21,-0.9 -0.57,-1.25 -0.31,-0.29 -0.72,-0.51 -1.23,-0.66 -0.05,-0.01 -0.1,-0.03 -0.16,-0.04 -0.35,-0.1 -0.71,-0.2 -0.93,-0.48 -0.16,-0.21 -0.2,-0.48 -0.24,-0.75 -0.02,-0.08 -0.03,-0.17 -0.05,-0.25 -0.07,-0.33 -0.28,-0.73 -0.64,-0.76l-0.01 0.02c0.35,0.03 0.56,0.42 0.63,0.75 0.01,0.08 0.03,0.16 0.04,0.25 0.04,0.26 0.09,0.54 0.25,0.76 0.23,0.28 0.59,0.38 0.94,0.48 0.06,0.02 0.11,0.03 0.16,0.05 0.51,0.14 0.92,0.36 1.22,0.65 0.36,0.34 0.57,0.79 0.56,1.22 -0.01,0.49 -0.3,0.94 -0.7,1.11l0.01 0.02z"/>
  <path class="fil31" d="M61.29 16.56c0.41,-0.15 0.69,-0.63 0.63,-1.11 -0.04,-0.42 -0.3,-0.83 -0.71,-1.13 -0.35,-0.26 -0.75,-0.41 -1.25,-0.57l-0.01 0.03c0.5,0.15 0.9,0.3 1.24,0.56 0.41,0.29 0.66,0.7 0.71,1.11 0.05,0.48 -0.22,0.94 -0.62,1.09l0.01 0.02z"/>
  <path class="fil32" d="M4.14 34.67l29.1 0 0 -5.82 -29.1 0c0.63,0 0.63,5.82 0,5.82z"/>
  <path class="fil29" d="M33.24 33.22l0 -2.67c0,-0.94 -0.58,-1.7 -1.29,-1.7l-27.68 0c-0.56,0 -1.01,-0.45 -1.01,-1.01 0,-0.17 0.13,-0.31 0.3,-0.31l30.26 0c0.7,0 1.8,1.1 1.8,2.44l0 3.72c0,1.27 -1.07,2.3 -1.73,2.3l-30.17 0c-0.25,0 -0.46,-0.21 -0.46,-0.46 0,-0.47 0.38,-0.86 0.85,-0.86l28.03 0c0.6,0 1.1,-0.65 1.1,-1.45z"/>
  <path class="fil28 str0" d="M32.43 30.09l-27.28 0c-0.03,0 -0.05,-0.02 -0.05,-0.04 0,-0.03 0.02,-0.05 0.05,-0.05l27.28 0c0.03,0 0.05,0.02 0.05,0.05 0,0.02 -0.02,0.04 -0.05,0.04z"/>
  <path class="fil28 str1" d="M32.43 30.96l-27.28 0c-0.03,0 -0.05,-0.02 -0.05,-0.05 0,-0.03 0.02,-0.05 0.05,-0.05l27.28 0c0.03,0 0.05,0.02 0.05,0.05 0,0.03 -0.02,0.05 -0.05,0.05z"/>
  <path class="fil28 str1" d="M32.43 31.82l-27.28 0c-0.03,0 -0.05,-0.02 -0.05,-0.05 0,-0.02 0.02,-0.04 0.05,-0.04l27.28 0c0.03,0 0.05,0.02 0.05,0.04 0,0.03 -0.02,0.05 -0.05,0.05z"/>
  <path class="fil28 str1" d="M32.43 32.69l-27.28 0c-0.03,0 -0.05,-0.02 -0.05,-0.05 0,-0.03 0.02,-0.05 0.05,-0.05l27.28 0c0.03,0 0.05,0.02 0.05,0.05 0,0.03 -0.02,0.05 -0.05,0.05z"/>
  <path class="fil28 str1" d="M32.43 33.55l-27.28 0c-0.03,0 -0.05,-0.02 -0.05,-0.05 0,-0.02 0.02,-0.04 0.05,-0.04l27.28 0c0.03,0 0.05,0.02 0.05,0.04 0,0.03 -0.02,0.05 -0.05,0.05z"/>
  <path class="fil15 str2" d="M8.93 27.6l23.35 0c0.53,0 0.97,-0.44 0.97,-0.98l0 -4.15c0,-0.54 -0.44,-0.98 -0.97,-0.98l-23.35 0c-0.54,0 -0.98,0.44 -0.98,0.98l0 4.15c0,0.54 0.44,0.98 0.98,0.98z"/>
  <path class="fil28" d="M27.77 26.9l2.27 0c0.2,0 0.35,-0.16 0.35,-0.35l0 -4c0,-0.2 -0.15,-0.35 -0.35,-0.35l-2.27 0c-0.19,0 -0.35,0.15 -0.35,0.35l0 4c0,0.19 0.16,0.35 0.35,0.35z"/>
  <path class="fil28" d="M26.05 26.9l0.76 0c0.09,0 0.17,-0.08 0.17,-0.18l0 -4.35c0,-0.09 -0.08,-0.17 -0.17,-0.17l-0.76 0c-0.1,0 -0.18,0.08 -0.18,0.17l0 4.35c0,0.1 0.08,0.18 0.18,0.18z"/>
  <path class="fil17" d="M25.86 9.6c0,0 0,0.24 -0.78,0.22 -0.43,-0.01 -1.24,-0.1 -1.69,0.58 -0.24,0.35 -0.67,0.51 -1.07,0.38 -1,-0.33 -2.67,-0.57 -3.71,0.93 -0.79,1.14 -0.4,1.92 0.17,2.42 0.43,0.36 0.51,0.99 0.17,1.43 -0.33,0.42 -0.46,1.03 0.13,1.87 1.33,1.87 4.77,-0.45 4.77,-0.45l3.22 -5.45 -1.21 -1.93z"/>
  <path class="fil16" d="M19.41 13.52c-0.04,0 -0.08,-0.03 -0.11,-0.08 -0.28,-0.49 -0.22,-1.17 0.15,-1.66 0.23,-0.29 0.53,-0.49 0.85,-0.56 0.23,-0.04 0.46,-0.02 0.68,0 0.38,0.04 0.75,0.1 1.12,0.17 0.03,0.01 0.06,0.01 0.09,0.02 0.21,0.05 0.44,0.09 0.66,0.09l0 0c0.28,0 0.53,-0.08 0.7,-0.23 0.1,-0.09 0.18,-0.21 0.25,-0.33 0.1,-0.14 0.19,-0.29 0.33,-0.39l0.01 0 0 0.01c-0.14,0.1 -0.23,0.24 -0.33,0.39 -0.07,0.11 -0.15,0.24 -0.25,0.33 -0.17,0.15 -0.42,0.23 -0.71,0.23l0 0c-0.23,0 -0.45,-0.04 -0.66,-0.09 -0.03,0 -0.06,-0.01 -0.09,-0.02 -0.37,-0.07 -0.74,-0.13 -1.12,-0.17 -0.22,-0.02 -0.45,-0.04 -0.68,0.01 -0.32,0.06 -0.62,0.26 -0.84,0.55 -0.37,0.48 -0.43,1.16 -0.15,1.65 0.03,0.03 0.07,0.09 0.12,0.07l0.01 0 0 0.01c-0.01,0 -0.02,0 -0.03,0z"/>
  <path class="fil28" d="M19.4 13.29l0 0c-0.06,-0.33 -0.04,-0.63 0.07,-0.88 0.13,-0.29 0.38,-0.5 0.65,-0.55l0.01 0 -0.01 0.01c-0.27,0.05 -0.51,0.26 -0.64,0.55 -0.11,0.24 -0.13,0.54 -0.07,0.86l-0.01 0.01 0 0z"/>
  <path class="fil14" d="M34.67 26.72c-0.01,-0.01 -4.28,-7.48 -4.85,-8.18 -0.1,-0.12 -0.25,-0.18 -0.4,-0.16l-1.19 0.14 -1.4 3.03 2.33 -1.36c-0.23,1.59 2.76,3.96 3.79,4.83 0.1,0.09 0.11,0.24 0.02,0.34l-0.41 0.43c0.67,0.69 1.45,1.12 2.32,1.33l-0.21 -0.4z"/>
  <path class="fil33" d="M32.79 25.56c0,0 -0.26,0.09 -0.35,0.32 -0.04,0.11 0.01,0.24 0.1,0.31 0.44,0.3 1.86,1.3 2.51,1.5 0.06,0.01 0.11,-0.04 0.1,-0.09 -0.04,-0.15 -0.15,-0.46 -0.5,-0.9l0.03 0.06c0.04,0.08 -0.04,0.17 -0.12,0.12 -0.44,-0.25 -1.33,-0.79 -1.77,-1.32z"/>
  <path class="fil34" d="M33.01 28.55c-0.01,0 -0.65,-1.55 -0.66,-1.55 -0.59,-3.57 -2.02,-6.64 -2.44,-7.44 -0.07,-0.14 -0.21,-0.23 -0.36,-0.24l-1.19 -0.1 -1.99 2.68 2.56 -0.86c-0.55,1.52 1.91,4.45 2.74,5.5 0.08,0.11 0.06,0.26 -0.06,0.34l-0.48 0.34c0.52,0.8 1.19,1.39 2.01,1.77l-0.13 -0.44z"/>
  <path class="fil33" d="M31.41 27.04c0,0 -0.28,0.03 -0.41,0.24 -0.07,0.1 -0.05,0.23 0.03,0.32 0.36,0.39 1.55,1.65 2.16,1.98 0.05,0.03 0.11,-0.01 0.11,-0.07 -0.01,-0.15 -0.05,-0.47 -0.31,-0.98l0.02 0.07c0.03,0.08 -0.08,0.15 -0.15,0.09 -0.37,-0.33 -1.14,-1.04 -1.45,-1.65z"/>
  <path class="fil35" d="M22.76 18.65c0,0 -1.08,1.61 -1.17,2.35 -0.09,0.73 0.3,0.98 1.43,1.08 3.37,0.28 5.03,-0.73 5.03,-0.73 0.23,-1.47 0.39,-1.85 2.32,-2.65 0,0 -2.44,0.2 -2.93,0.01 -0.48,-0.19 -4.68,-0.06 -4.68,-0.06z"/>
  <path class="fil13" d="M25.69 18.44c0,0 1.25,-1.2 1.87,-1.99 0.34,-0.43 0.44,-1 0.29,-1.52 -0.28,-0.95 -0.79,-1.94 -0.83,-2.09 -0.07,-0.24 -1.48,-0.23 -1.48,-0.23 0,0 -2.78,1.8 -3.87,4.86l1.22 0.38c0,0 0.73,-1.22 1.44,-1.99 0,0 -1.24,1.64 -1.28,2.31l2.64 0.27z"/>
  <path class="fil14" d="M27.19 11.52c-0.02,0.05 -0.38,1.27 -0.41,1.3 -0.03,0.02 -0.81,0.06 -1.18,-0.19l0.75 -1.65 0.84 0.54z"/>
  <path class="fil36" d="M28.08 18.91l-0.94 -1.03 -1.09 0.3c0,0 -1.28,0.2 -2.01,0 -0.73,-0.2 -0.73,-0.2 -0.73,-0.2l-1.64 -0.51 -0.26 0.73c-0.07,0.19 0,0.39 0.16,0.51 0.14,0.1 0.31,0.21 0.41,0.26 0.22,0.09 5,0.03 5,0.03l1.1 -0.09z"/>
  <path class="fil37" d="M24.95 19.32l0.01 0 4.35 0c0.11,0 0.2,-0.09 0.2,-0.2 0,-0.11 -0.09,-0.19 -0.2,-0.19l-4.35 0c-0.11,0 -0.19,0.09 -0.19,0.2 0,0.1 0.08,0.19 0.18,0.19z"/>
  <path class="fil37" d="M33.23 15.37l-3.63 0c-0.27,0 -0.51,0.15 -0.62,0.4l-1.68 3.55 4.51 0c0.17,0 0.32,-0.11 0.39,-0.27l1.3 -3.28c0.07,-0.19 -0.07,-0.4 -0.27,-0.4z"/>
  <path class="fil16" d="M30.67 17.19c-0.08,0.25 -0.02,0.48 0.13,0.53 0.15,0.05 0.34,-0.11 0.42,-0.35 0.08,-0.25 0.02,-0.48 -0.13,-0.53 -0.15,-0.05 -0.34,0.11 -0.42,0.35z"/>
  <path class="fil38" d="M27.88 9.86c0,0 0.34,0.6 0.12,1.57 -0.23,0.97 -0.73,1.11 -1.08,0.91 -0.35,-0.2 -0.82,-0.58 -0.96,-1.43 -0.13,-0.84 1.48,-1.79 1.92,-1.05z"/>
  <path class="fil17" d="M26.6 10.8c0,0 0.44,-1.34 1.37,-0.63l0.1 0.32c0,0 0.79,-0.31 0.45,-1.02 -0.34,-0.71 -1.17,-0.99 -1.99,-0.43 -0.83,0.57 -1.26,1.04 -1.14,1.71 0.11,0.66 0.59,0.38 0.59,0.38 0,0 0.05,-0.5 0.27,-0.61 0.23,-0.11 0.26,0.26 0.26,0.26l0.09 0.02z"/>
  <path class="fil39" d="M26.4 10.83c0,0 0.23,-0.68 -0.19,-0.67 -0.41,0.02 -0.18,0.66 -0.07,0.89l0.26 -0.22z"/>
  <g id="_2718007390816">
   <path class="fil40" d="M9.9 6.15c0,2.12 1.72,3.84 3.84,3.84 2.13,0 3.85,-1.72 3.85,-3.84 0,-2.13 -1.72,-3.85 -3.85,-3.85 -2.12,0 -3.84,1.72 -3.84,3.85z"/>
   <path class="fil41" d="M13.74 2.39c2.08,0 3.76,1.68 3.76,3.76 0,2.07 -1.68,3.76 -3.76,3.76 -2.07,0 -3.76,-1.69 -3.76,-3.76 0,-2.08 1.69,-3.76 3.76,-3.76zm0 7.69c2.17,0 3.93,-1.77 3.93,-3.93 0,-2.17 -1.76,-3.93 -3.93,-3.93 -2.16,0 -3.93,1.76 -3.93,3.93 0,2.16 1.77,3.93 3.93,3.93z"/>
   <path class="fil41" d="M15.41 6.12c0.51,-0.64 0.4,-1.58 -0.24,-2.09 -0.65,-0.51 -1.58,-0.4 -2.09,0.24 -0.51,0.65 -0.4,1.58 0.24,2.09 0.65,0.51 1.58,0.4 2.09,-0.24zm-3.94 2.06l1.43 -1.8c-0.56,-0.64 -0.61,-1.61 -0.06,-2.3 0.61,-0.77 1.74,-0.91 2.52,-0.29 0.78,0.61 0.91,1.74 0.29,2.52 -0.5,0.63 -1.33,0.83 -2.04,0.56l-1.46 1.85c-0.05,0.07 -0.18,0.06 -0.29,-0.02l-0.04 -0.04 -0.26 -0.2c-0.02,-0.02 -0.04,-0.04 -0.06,-0.06 -0.06,-0.07 -0.08,-0.16 -0.03,-0.22z"/>
  </g>
  <path class="fil42" d="M42.63 28.83l-1.36 1.37c-0.27,0.26 -0.7,0.26 -0.97,0l-1.36 -1.37c-0.27,-0.26 -0.27,-0.7 0,-0.96l1.36 -1.37c0.27,-0.26 0.7,-0.26 0.97,0l1.36 1.37c0.27,0.26 0.27,0.7 0,0.96z"/>
  <path class="fil42" d="M54.28 8.17c-0.4,0.08 -0.51,-0.45 -0.11,-0.53 0.4,-0.08 0.51,0.46 0.11,0.53zm-0.38 -0.63c-0.07,-0.12 -0.11,-0.3 -0.06,-0.45 0.07,-0.26 0.36,-0.4 0.3,-0.67 -0.01,-0.07 -0.05,-0.12 -0.1,-0.15 -0.13,-0.08 -0.32,-0.01 -0.45,0.07 -0.08,0.06 -0.16,0.13 -0.22,0.21l-0.1 -0.48c0.15,-0.14 0.34,-0.23 0.54,-0.27 0.41,-0.08 0.75,0.04 0.83,0.44 0.08,0.38 -0.16,0.57 -0.31,0.78 -0.08,0.12 -0.09,0.2 -0.07,0.29 0.01,0.05 0.03,0.11 0.07,0.14l-0.43 0.09z"/>
  <polygon class="fil43" points="41.56,21.39 41.97,21.76 42.5,21.53 42.94,21.97 43.42,21.56 43.94,22.04 44.43,21.72 45,22.1 44.86,22.32 44.43,22.03 43.91,22.38 43.41,21.91 42.92,22.33 42.44,21.84 41.93,22.06 41.54,21.72 41.23,21.94 41.08,21.72 "/>
  <path class="fil44" d="M14.45 15.87l0.48 0.03c0,0 0.65,-0.42 0.68,-0.58 0.03,-0.16 -0.04,-0.51 0.06,-0.55 0.09,-0.03 0.3,-0.05 0.4,0.18 0.08,0.16 -0.04,0.72 0.01,0.77 0.04,0.02 0.31,0.05 0.52,0.06 0.13,0.01 0.24,0.1 0.3,0.22l0 0c0.03,0.09 0.01,0.19 -0.07,0.24l-0.11 0.08 0.07 0.12c0.06,0.09 0.03,0.21 -0.06,0.27l-0.09 0.06 0.06 0.07c0.06,0.09 0.04,0.22 -0.06,0.28l-0.08 0.05 0.01 0.02c0.04,0.1 0,0.2 -0.08,0.25l-0.08 0.05 -1.28 -0.08c-0.12,-0.01 -0.24,-0.04 -0.35,-0.1l-0.44 -0.1c-0.05,-0.01 -0.08,-0.06 -0.08,-0.11l0.09 -1.14c0,-0.06 0.05,-0.1 0.1,-0.09z"/>
  <path class="fil45" d="M7 14.11l-0.61 -0.61c-0.1,-0.1 -0.1,-0.26 0,-0.36l0.61 -0.61c0.1,-0.1 0.26,-0.1 0.36,0l0.61 0.61c0.1,0.1 0.1,0.26 0,0.36l-0.61 0.61c-0.1,0.1 -0.26,0.1 -0.36,0z"/>
  <polygon class="fil46" points="40,0.32 38.25,0.42 38.53,1.45 36.37,2.01 38.97,1.98 38.76,0.81 40.61,0.92 "/>
  <polygon class="fil42" points="25.93,5.54 25.22,6.79 25.07,6.05 23.68,6.56 23.48,5.59 24.96,5.47 24.79,4.76 "/>
  <path class="fil42" d="M4.55 18.81c0.44,-0.09 0.72,-0.52 0.63,-0.95 -0.08,-0.44 -0.51,-0.73 -0.95,-0.64 -0.44,0.09 -0.72,0.52 -0.63,0.96 0.09,0.43 0.51,0.72 0.95,0.63zm-0.06 -0.31c0.27,-0.06 0.44,-0.32 0.38,-0.58 -0.05,-0.27 -0.31,-0.44 -0.58,-0.39 -0.26,0.06 -0.44,0.32 -0.38,0.58 0.05,0.27 0.31,0.44 0.58,0.39zm-1.08 0.12c-0.01,-0.02 -0.04,-0.02 -0.06,-0.02 -0.1,0.03 -0.28,-0.01 -0.37,-0.04l-0.1 -0.49c0.07,-0.07 0.22,-0.18 0.33,-0.19 0.02,0 0.04,-0.02 0.04,-0.04l0.13 -0.37c0,-0.02 0,-0.05 -0.02,-0.06 -0.07,-0.07 -0.13,-0.25 -0.14,-0.35l0.37 -0.33c0.09,0.03 0.26,0.11 0.33,0.19 0.01,0.02 0.03,0.03 0.05,0.02l0.39 -0.08c0.02,0 0.04,-0.02 0.04,-0.04 0.03,-0.1 0.16,-0.24 0.23,-0.3l0.47 0.16c0.02,0.09 0.04,0.28 0,0.38 -0.01,0.02 0,0.04 0.01,0.06l0.26 0.29c0.02,0.02 0.04,0.03 0.06,0.02 0.1,-0.03 0.28,0.01 0.38,0.04l0.09 0.5c-0.07,0.06 -0.22,0.17 -0.32,0.18 -0.03,0.01 -0.04,0.02 -0.05,0.04l-0.13 0.37c0,0.02 0,0.05 0.02,0.06 0.07,0.08 0.13,0.26 0.15,0.35l-0.38 0.33c-0.09,-0.03 -0.26,-0.11 -0.33,-0.19 -0.01,-0.02 -0.03,-0.02 -0.05,-0.02l-0.39 0.08c-0.02,0 -0.03,0.02 -0.04,0.04 -0.03,0.1 -0.16,0.24 -0.23,0.3l-0.47 -0.16c-0.02,-0.09 -0.04,-0.28 0,-0.38 0.01,-0.02 0,-0.04 -0.01,-0.06l-0.26 -0.29z"/>
  <path class="fil47" d="M6.7 19.91c-0.26,0.05 -0.52,-0.12 -0.57,-0.38 -0.05,-0.27 0.12,-0.52 0.38,-0.58 0.26,-0.05 0.52,0.12 0.57,0.38 0.05,0.27 -0.12,0.52 -0.38,0.58zm-0.11 0.47c0.01,-0.02 0.02,-0.03 0.04,-0.04l0.3 -0.06c0.02,0 0.04,0 0.05,0.02 0.05,0.06 0.19,0.13 0.26,0.15l0.3 -0.26c-0.02,-0.08 -0.06,-0.22 -0.12,-0.28 -0.01,-0.01 -0.02,-0.03 -0.01,-0.05l0.1 -0.29c0,-0.02 0.01,-0.03 0.03,-0.03 0.08,-0.01 0.21,-0.1 0.26,-0.15l-0.08 -0.39c-0.07,-0.02 -0.21,-0.06 -0.29,-0.03 -0.02,0 -0.04,0 -0.05,-0.02l-0.21 -0.23c-0.01,-0.01 -0.01,-0.03 0,-0.05 0.03,-0.07 0.01,-0.22 0,-0.3l-0.38 -0.12c-0.05,0.05 -0.16,0.16 -0.18,0.24 0,0.01 -0.01,0.03 -0.03,0.03l-0.31 0.06c-0.01,0 -0.03,0 -0.04,-0.02 -0.05,-0.06 -0.19,-0.12 -0.26,-0.15l-0.3 0.26c0.02,0.08 0.06,0.22 0.12,0.28 0.01,0.01 0.02,0.03 0.01,0.05l-0.1 0.29c0,0.02 -0.02,0.03 -0.03,0.03 -0.09,0.01 -0.21,0.1 -0.26,0.15l0.07 0.39c0.08,0.02 0.22,0.06 0.3,0.03 0.02,0 0.04,0.01 0.05,0.02l0.2 0.23c0.01,0.01 0.02,0.03 0.01,0.05 -0.03,0.08 -0.02,0.22 0,0.3l0.37 0.12c0.06,-0.04 0.16,-0.16 0.18,-0.23z"/>
  <g id="_2718007397296">
   <path class="fil46" d="M29.96 3.62l5.67 -0.9 0.5 3.13 -5.67 0.9 -0.5 -3.13zm5.18 -1.17l-4.8 0.77c-0.71,0.11 -0.73,0.27 -0.62,0.98l0.48 2.96c0.11,0.71 0.17,0.85 0.89,0.74l4.8 -0.76c0.71,-0.12 0.73,-0.27 0.62,-0.99l-0.47 -2.95c-0.12,-0.72 -0.18,-0.86 -0.9,-0.75z"/>
   <path class="fil46" d="M34.65 7.97l-0.26 0.04c-0.14,-0.14 -0.23,-0.28 -0.29,-0.41l-0.01 -0.02 -1.16 0.18c0,0.04 -0.01,0.08 -0.01,0.13 -0.02,0.11 -0.07,0.24 -0.13,0.37l-0.27 0.05c-0.12,0.02 -0.2,0.13 -0.18,0.25 0.02,0.12 0.13,0.2 0.25,0.18l2.13 -0.34c0.12,-0.02 0.2,-0.13 0.18,-0.25 -0.02,-0.12 -0.13,-0.2 -0.25,-0.18z"/>
   <path class="fil46" d="M33.05 3.79l0.16 0.97 0.95 0.24c0.03,-0.13 0.04,-0.26 0.01,-0.4 -0.08,-0.53 -0.58,-0.89 -1.12,-0.81z"/>
   <path class="fil46" d="M32.88 3.79c-0.53,0.09 -0.9,0.59 -0.81,1.12 0,0.04 0.01,0.07 0.02,0.11l0.94 -0.26 -0.15 -0.97z"/>
   <path class="fil46" d="M32.17 5.17c0.13,0.47 0.6,0.79 1.1,0.71 0.26,-0.04 0.47,-0.18 0.62,-0.37l-0.77 -0.6 -0.95 0.26z"/>
   <path class="fil46" d="M33.99 5.48c0.08,-0.11 0.14,-0.23 0.18,-0.37l-0.95 -0.24 0.77 0.61z"/>
  </g>
 </g>
</svg>
