<?xml version="1.0" encoding="UTF-8"?>
<!DOCTYPE svg PUBLIC "-//W3C//DTD SVG 1.1//EN" "http://www.w3.org/Graphics/SVG/1.1/DTD/svg11.dtd">
<!-- Creator: CorelDRAW 2020 (64-Bit) -->
<svg xmlns="http://www.w3.org/2000/svg" xml:space="preserve" width="600px" height="380px" version="1.1" style="shape-rendering:geometricPrecision; text-rendering:geometricPrecision; image-rendering:optimizeQuality; fill-rule:evenodd; clip-rule:evenodd"
viewBox="0 0 53.21 33.73"
 xmlns:xlink="http://www.w3.org/1999/xlink"
 xmlns:xodm="http://www.corel.com/coreldraw/odm/2003">
 <defs>
  <style type="text/css">
   <![CDATA[
    .fil6 {fill:#FEFEFE}
    .fil2 {fill:#EBECEC}
    .fil3 {fill:#D9DADA}
    .fil1 {fill:#667378}
    .fil19 {fill:#56698F}
    .fil23 {fill:#374C54}
    .fil18 {fill:#4373B7}
    .fil30 {fill:#3A72B7}
    .fil15 {fill:#2E65AD}
    .fil14 {fill:#829E27}
    .fil20 {fill:#8FBF32}
    .fil31 {fill:#F9B776}
    .fil16 {fill:#F9B776}
    .fil35 {fill:#FEFEFE;fill-rule:nonzero}
    .fil40 {fill:#FEFEFE;fill-rule:nonzero}
    .fil24 {fill:#EBECEC;fill-rule:nonzero}
    .fil0 {fill:#AEC8E9;fill-rule:nonzero}
    .fil36 {fill:#AEC8E9;fill-rule:nonzero}
    .fil38 {fill:#2E65AD;fill-rule:nonzero}
    .fil25 {fill:#829E27;fill-rule:nonzero}
    .fil39 {fill:#8FBF32;fill-rule:nonzero}
    .fil37 {fill:#FCFCFC;fill-rule:nonzero}
    .fil41 {fill:white;fill-rule:nonzero}
    .fil28 {fill:url(#id0)}
    .fil26 {fill:url(#id1)}
    .fil27 {fill:url(#id2)}
    .fil22 {fill:url(#id3)}
    .fil4 {fill:url(#id4)}
    .fil29 {fill:url(#id5)}
    .fil32 {fill:url(#id6)}
    .fil5 {fill:url(#id7)}
    .fil17 {fill:url(#id8)}
    .fil21 {fill:url(#id9)}
    .fil11 {fill:url(#id10)}
    .fil34 {fill:url(#id11)}
    .fil8 {fill:url(#id12)}
    .fil9 {fill:url(#id13)}
    .fil13 {fill:url(#id14)}
    .fil33 {fill:url(#id15)}
    .fil7 {fill:url(#id16)}
    .fil10 {fill:url(#id17)}
    .fil12 {fill:url(#id18)}
   ]]>
  </style>
  <linearGradient id="id0" gradientUnits="userSpaceOnUse" x1="6.54" y1="29.78" x2="5.93" y2="29.78">
   <stop offset="0" style="stop-opacity:1; stop-color:#F9B776"/>
   <stop offset="1" style="stop-opacity:1; stop-color:#F47960"/>
  </linearGradient>
  <linearGradient id="id1" gradientUnits="userSpaceOnUse" xlink:href="#id0" x1="9.2" y1="29.79" x2="8.49" y2="29.79">
  </linearGradient>
  <linearGradient id="id2" gradientUnits="userSpaceOnUse" x1="8.91" y1="24.4" x2="6.8" y2="24.4">
   <stop offset="0" style="stop-opacity:1; stop-color:#7690C9"/>
   <stop offset="1" style="stop-opacity:1; stop-color:#2E65AD"/>
  </linearGradient>
  <linearGradient id="id3" gradientUnits="userSpaceOnUse" x1="26.58" y1="5.9" x2="26.08" y2="10.73">
   <stop offset="0" style="stop-opacity:1; stop-color:#FEBBBA"/>
   <stop offset="1" style="stop-opacity:1; stop-color:#FF928E"/>
  </linearGradient>
  <linearGradient id="id4" gradientUnits="userSpaceOnUse" x1="24.76" y1="30.53" x2="30.1" y2="30.53">
   <stop offset="0" style="stop-opacity:1; stop-color:#B37CFF"/>
   <stop offset="1" style="stop-opacity:1; stop-color:#F895E7"/>
  </linearGradient>
  <linearGradient id="id5" gradientUnits="userSpaceOnUse" xlink:href="#id2" x1="8.26" y1="24.32" x2="5.27" y2="24.32">
  </linearGradient>
  <linearGradient id="id6" gradientUnits="userSpaceOnUse" xlink:href="#id0" x1="9.4" y1="15.73" x2="7.37" y2="16.81">
  </linearGradient>
  <linearGradient id="id7" gradientUnits="userSpaceOnUse" xlink:href="#id4" x1="24.71" y1="28.51" x2="30.1" y2="28.51">
  </linearGradient>
  <linearGradient id="id8" gradientUnits="userSpaceOnUse" x1="36.52" y1="24.13" x2="36.34" y2="27.27">
   <stop offset="0" style="stop-opacity:1; stop-color:#4F52FF"/>
   <stop offset="1" style="stop-opacity:1; stop-color:#4042E2"/>
  </linearGradient>
  <linearGradient id="id9" gradientUnits="userSpaceOnUse" xlink:href="#id3" x1="33.43" y1="12.65" x2="32.14" y2="13.77">
  </linearGradient>
  <linearGradient id="id10" gradientUnits="userSpaceOnUse" xlink:href="#id4" x1="9.66" y1="28.52" x2="43.08" y2="28.52">
  </linearGradient>
  <linearGradient id="id11" gradientUnits="userSpaceOnUse" x1="7.29" y1="10.11" x2="4.64" y2="9.32">
   <stop offset="0" style="stop-opacity:1; stop-color:#F9B776"/>
   <stop offset="0.968627" style="stop-opacity:1; stop-color:#F7986B"/>
   <stop offset="1" style="stop-opacity:1; stop-color:#F47960"/>
  </linearGradient>
  <linearGradient id="id12" gradientUnits="userSpaceOnUse" xlink:href="#id4" x1="9.66" y1="28.51" x2="43.08" y2="28.51">
  </linearGradient>
  <linearGradient id="id13" gradientUnits="userSpaceOnUse" x1="14.95" y1="31.83" x2="20.28" y2="31.83">
   <stop offset="0" style="stop-opacity:1; stop-color:#DAE3FE"/>
   <stop offset="1" style="stop-opacity:1; stop-color:#E9EFFD"/>
  </linearGradient>
  <linearGradient id="id14" gradientUnits="userSpaceOnUse" xlink:href="#id4" x1="9.66" y1="28.55" x2="43.08" y2="28.55">
  </linearGradient>
  <linearGradient id="id15" gradientUnits="userSpaceOnUse" xlink:href="#id0" x1="6.69" y1="11.77" x2="4.72" y2="13.93">
  </linearGradient>
  <linearGradient id="id16" gradientUnits="userSpaceOnUse" xlink:href="#id4" x1="6.15" y1="30.48" x2="45.91" y2="30.48">
  </linearGradient>
  <linearGradient id="id17" gradientUnits="userSpaceOnUse" xlink:href="#id4" x1="6.15" y1="30.5" x2="45.91" y2="30.5">
  </linearGradient>
  <linearGradient id="id18" gradientUnits="userSpaceOnUse" xlink:href="#id4" x1="6.15" y1="30.55" x2="45.91" y2="30.55">
  </linearGradient>
 </defs>
 <g id="Layer_x0020_1">
  <metadata id="CorelCorpID_0Corel-Layer"/>
  <path class="fil0" d="M20.48 0.93c0,0 8.11,-2.36 15.8,2.78 7.69,5.15 6.53,12.43 6.53,12.43 0,0 8.64,1.32 10.02,8.18 1.38,6.86 -1.41,9.18 -1.41,9.18l-48.19 0.09c0,0 -7.5,-18.91 0.36,-27.82 7.87,-8.92 16.89,-4.84 16.89,-4.84z"/>
  <polygon class="fil1" points="4.4,32.38 47.33,32.38 41.12,27.28 11.97,27.33 "/>
  <polygon class="fil1" points="4.4,33.73 47.33,33.73 47.33,32.45 4.4,32.45 "/>
  <polygon class="fil2" points="12.9,29.7 10.79,31.28 15.99,31.28 17.39,29.71 "/>
  <polygon class="fil3" points="45.91,31.28 44.22,29.9 38.86,29.85 39.78,31.28 "/>
  <polygon class="fil2" points="25.2,31.28 24.77,32.38 30.1,32.38 30.1,31.28 "/>
  <polygon class="fil2" points="21.26,29.75 20.28,31.28 25.2,31.28 25.76,29.76 "/>
  <polygon class="fil2" points="34.99,31.28 34.49,29.84 30.1,29.84 30.1,31.28 "/>
  <polygon class="fil4" points="30.1,29.84 25.85,29.78 25.2,31.28 30.1,31.28 "/>
  <polygon class="fil1" points="30.1,29.84 25.85,29.78 25.2,31.28 30.1,31.28 "/>
  <polygon class="fil2" points="26.06,29.09 25.85,29.86 30.1,29.84 30.1,29.09 "/>
  <polygon class="fil2" points="30.1,27.39 26.73,27.4 26.59,27.92 30.1,27.93 "/>
  <polygon class="fil2" points="22.44,27.95 21.76,29.09 26.06,29.09 26.46,27.99 "/>
  <polygon class="fil2" points="34.05,29.09 33.71,27.99 30.1,27.93 30.1,29.09 "/>
  <polygon class="fil5" points="30.1,27.93 26.54,27.97 26.06,29.09 30.1,29.09 "/>
  <polygon class="fil1" points="30.1,27.93 26.54,27.97 26.06,29.09 30.1,29.09 "/>
  <polygon class="fil2" points="18.06,29.09 19.03,27.94 15.31,27.96 13.86,29.09 "/>
  <polygon class="fil3" points="43.08,29.09 41.85,28.02 37.62,28.03 38.28,29.09 "/>
  <polygon class="fil6" points="8.61,29.67 12.9,29.76 13.86,29.09 9.66,29.09 11.34,27.92 15.31,27.91 15.89,27.44 11.97,27.37 4.4,32.38 9.25,32.38 10.79,31.28 6.15,31.28 "/>
  <polygon class="fil7" points="8.61,29.67 6.15,31.28 10.79,31.28 12.9,29.68 "/>
  <polygon class="fil1" points="8.61,29.67 6.15,31.28 10.79,31.28 12.9,29.68 "/>
  <polygon class="fil8" points="9.66,29.09 13.86,29.09 15.31,27.93 11.34,27.94 "/>
  <polygon class="fil1" points="9.66,29.09 13.86,29.09 15.31,27.93 11.34,27.94 "/>
  <polygon class="fil2" points="18.06,29.09 17.39,29.81 21.26,29.86 21.76,29.09 "/>
  <polygon class="fil2" points="14.95,32.38 19.55,32.38 20.28,31.28 15.99,31.28 "/>
  <polygon class="fil9" points="22.75,27.41 19.45,27.42 19.03,27.89 22.44,27.9 "/>
  <polygon class="fil10" points="17.39,29.72 15.99,31.28 20.28,31.28 21.26,29.73 "/>
  <polygon class="fil1" points="17.39,29.72 15.99,31.28 20.28,31.28 21.26,29.73 "/>
  <polygon class="fil11" points="21.76,29.09 22.44,27.95 19.03,27.97 18.06,29.09 "/>
  <polygon class="fil1" points="21.76,29.09 22.44,27.95 19.03,27.97 18.06,29.09 "/>
  <polygon class="fil3" points="34.4,29.92 38.86,29.98 38.28,29.09 34.05,29.09 "/>
  <polygon class="fil3" points="37.25,27.37 33.4,27.38 33.63,27.94 37.62,27.95 "/>
  <polygon class="fil3" points="34.99,31.28 35.46,32.38 40.53,32.38 39.78,31.28 "/>
  <polygon class="fil12" points="38.86,29.87 34.4,29.82 34.99,31.28 39.78,31.28 "/>
  <polygon class="fil1" points="38.86,29.87 34.4,29.82 34.99,31.28 39.78,31.28 "/>
  <polygon class="fil13" points="38.28,29.09 37.62,28 33.63,28.02 34.05,29.09 "/>
  <polygon class="fil1" points="38.28,29.09 37.62,28 33.63,28.02 34.05,29.09 "/>
  <g id="_2718125897232">
   <path class="fil14" d="M27.66 27.96l-12.13 0c-0.07,0 -0.12,-0.05 -0.12,-0.11l0 -4.1c0,-0.06 0.05,-0.12 0.12,-0.12l12.13 0c0.07,0 0.12,0.06 0.12,0.12l0 4.1c0,0.06 -0.05,0.11 -0.12,0.11z"/>
   <path class="fil14" d="M28.57 24.15c0,1.23 -3.26,2.23 -7.27,2.23 -4.02,0 -7.27,-1 -7.27,-2.23 0,-1.23 3.25,-2.23 7.27,-2.23 4.01,0 7.27,1 7.27,2.23z"/>
   <polygon class="fil14" points="23.79,23.94 19.18,23.94 20.05,10.45 22.83,10.45 "/>
   <path class="fil14" d="M25.51 11c0,0.49 -1.85,0.89 -4.12,0.89 -2.28,0 -4.12,-0.4 -4.12,-0.89 0,-0.49 1.84,-0.89 4.12,-0.89 2.27,0 4.12,0.4 4.12,0.89z"/>
   <path class="fil14" d="M23.84 4.32l-1.74 1.37 -0.85 -1.2 -0.82 1.19 -1.64 -1.09c0,0 1.58,4.7 0.39,6.21l4.17 0c-0.58,-1.51 0.49,-6.48 0.49,-6.48z"/>
  </g>
  <path class="fil15" d="M45.31 28.02l-8.47 0c-0.04,0 -0.07,-0.04 -0.07,-0.08l0 -2.86c0,-0.04 0.03,-0.08 0.07,-0.08l8.47 0c0.04,0 0.08,0.04 0.08,0.08l0 2.86c0,0.04 -0.04,0.08 -0.08,0.08z"/>
  <path class="fil15" d="M45.94 25.36c0,0.86 -2.27,1.56 -5.07,1.56 -2.8,0 -5.07,-0.7 -5.07,-1.56 0,-0.86 2.27,-1.56 5.07,-1.56 2.8,0 5.07,0.7 5.07,1.56z"/>
  <polygon class="fil15" points="42.88,25.22 39.1,25.22 39.82,16.52 42.1,16.52 "/>
  <path class="fil15" d="M43.95 14.12l-0.85 0 0 1.29c0,0.11 0.05,0.19 -0.05,0.18l-0.19 -0.02c-0.08,-0.01 -0.11,-0.09 -0.11,-0.18l0 -1.14c0,-0.09 -0.03,-0.13 -0.12,-0.13l-0.52 0c-0.09,0 -0.24,0.04 -0.24,0.13l0 1.1c0,0.09 -0.04,0.16 -0.13,0.17l-0.31 0.02c-0.1,0 -0.26,-0.07 -0.26,-0.18l0 -1.11c0,-0.09 -0.01,-0.13 -0.11,-0.13l-0.1 0c-0.09,0 -0.15,0.04 -0.15,0.13l0 1.08c0,0.09 -0.07,0.16 -0.16,0.17l-0.11 0.03c-0.11,0.01 -0.08,-0.07 -0.08,-0.17l0 -1.11c0,-0.09 -0.32,-0.13 -0.42,-0.13l-0.52 0c-0.09,0 -0.12,0.04 -0.12,0.13l0 1.1c0,0.09 -0.09,0.16 -0.18,0.17l-0.19 0.02c-0.1,0 -0.15,-0.07 -0.15,-0.18l0 -1.11c0,-0.09 -0.18,-0.13 -0.28,-0.13l-0.25 0c-0.09,0 -0.18,0.04 -0.18,0.13 0,0 0,2.05 0,2.07 0,0.38 1.3,0.68 2.89,0.68 1.6,0 2.89,-0.28 2.89,-0.65 0,-0.03 0,-2.23 0,-2.23z"/>
  <g id="_2718125904624">
   <path class="fil15" d="M30.82 29.37c0.36,0.03 0.98,0.08 1.47,0.1 0.29,0.02 0.46,-0.01 0.56,-0.05 0,0.01 0,0.02 0,0.03 0,0.05 -0.05,0.09 -0.1,0.1 -0.92,0.05 -1.66,0.01 -1.92,0 -0.05,-0.01 -0.09,-0.06 -0.06,-0.11 0.01,-0.02 0.03,-0.05 0.05,-0.07z"/>
   <path class="fil15" d="M32.29 29.47c-0.49,-0.02 -1.11,-0.07 -1.47,-0.1 0.35,-0.43 1.47,-0.72 1.47,-0.72l0.31 0c0.22,0.31 0.25,0.61 0.25,0.77 -0.1,0.04 -0.27,0.07 -0.56,0.05z"/>
   <path class="fil16" d="M32.66 28.13l-0.03 0.59c-0.01,0.06 -0.05,0.11 -0.12,0.12 -0.06,0.01 -0.14,0.01 -0.23,-0.02 -0.06,-0.01 -0.1,-0.06 -0.11,-0.12l-0.1 -0.57 0.59 0z"/>
   <path class="fil17" d="M36.32 30.05c0.15,-0.03 0.22,-0.14 0.25,-0.25l0 0c0.02,0.12 -0.03,0.24 -0.14,0.3 -0.12,0.07 -0.26,0.08 -0.37,0.08 -0.12,-0.01 -0.22,-0.07 -0.28,-0.17l0 0c0.11,0.07 0.28,0.08 0.54,0.04z"/>
   <path class="fil15" d="M35.58 28.31l0.26 0c0.4,-0.01 0.65,1.07 0.73,1.49 -0.03,0.11 -0.1,0.22 -0.25,0.25 -0.26,0.04 -0.43,0.03 -0.54,-0.04 -0.22,-0.37 -0.32,-0.9 -0.38,-1.21 -0.05,-0.35 0.18,-0.49 0.18,-0.49z"/>
   <path class="fil16" d="M35.81 27.77l0.15 0.58c0.01,0.07 -0.02,0.14 -0.09,0.17 -0.08,0.05 -0.19,0.09 -0.3,0.08 -0.04,-0.01 -0.09,-0.04 -0.1,-0.09l-0.21 -0.61 0.55 -0.13z"/>
   <path class="fil18" d="M30.73 20.21c0,0 1.29,8.06 1.27,8.11 0,0 0.36,0.16 0.75,0.02 0,0 -0.12,-4.31 -0.39,-5.96 0,0 2.2,3.85 2.9,5.77 0,0 0.36,-0.04 0.66,-0.24 0,0 -2.37,-6.94 -3,-7.86l-2.19 0.16z"/>
   <path class="fil19" d="M32.3 22.33c0.01,0 0.02,0 0.02,0 0.02,-0.01 0.03,-0.04 0.02,-0.06l-0.49 -0.77c0,0 -0.01,-0.01 -0.02,-0.01l-0.36 -0.07c-0.02,-0.01 -0.04,0.01 -0.04,0.03 0,0.02 0.01,0.04 0.03,0.04l0.34 0.07 0.47 0.76c0.01,0.01 0.02,0.01 0.03,0.01z"/>
   <path class="fil16" d="M24.81 12.31c0,0 0.87,0.19 1.4,0.44 0.11,0.05 0.19,0.13 0.24,0.24 0.16,0.34 0.63,1.21 1.55,1.63 -0.13,0.17 -0.35,0.54 -0.44,1.15 -0.55,-0.41 -1.03,-1.09 -1.26,-2.22 0,0 -0.17,0.1 -0.39,-0.01 -0.11,-0.05 -0.25,-0.13 -0.34,-0.2 -0.1,-0.06 -0.18,-0.15 -0.21,-0.27 -0.03,-0.15 -0.01,-0.28 -0.01,-0.42l-0.45 -0.13c0,0 -0.13,-0.06 -0.09,-0.21z"/>
   <path class="fil20" d="M27.56 15.77c0.09,-0.61 0.31,-0.98 0.44,-1.15 0.57,0.26 1.31,0.34 2.26,0.01 0.09,-0.03 0.18,-0.05 0.27,-0.05 0.5,-0.03 2.16,-0.09 3.53,0.37 0.29,0.09 0.53,0.31 0.65,0.58 0.37,0.86 0.97,2.8 -0.7,3.78 -0.13,-0.32 -0.28,-0.58 -0.4,-0.77 0.27,-0.45 0.35,-1.07 -0.13,-1.87 -0.35,0.93 -0.51,2.3 -0.55,2.91 -0.01,0.2 0.03,0.4 0.11,0.58l0 0.02c0.02,0.04 0,0.09 -0.04,0.1 -0.94,0.21 -1.92,0.15 -2.21,0.13 -0.05,-0.01 -0.1,-0.04 -0.11,-0.09 -0.46,-1.93 -0.46,-3.24 -0.35,-4.07 -0.42,0.09 -1.73,0.3 -2.77,-0.48z"/>
   <path class="fil14" d="M30.33 16.3c0.02,0 0.04,-0.01 0.04,-0.03 0.11,-0.81 0.33,-1.17 0.33,-1.17 0.01,-0.02 0,-0.04 -0.01,-0.05 -0.02,-0.01 -0.05,-0.01 -0.06,0.01 -0.01,0.01 -0.23,0.37 -0.34,1.2 0,0.02 0.02,0.04 0.04,0.04 0,0 0,0 0,0z"/>
   <path class="fil16" d="M32.65 13.46c0,0 0.1,1 0.18,1.3 0.01,0.04 -0.01,0.09 -0.05,0.11 -0.14,0.09 -0.48,0.22 -0.95,-0.01 -0.07,-0.04 -0.12,-0.12 -0.11,-0.2l0.04 -0.97 0.89 -0.23z"/>
   <path class="fil16" d="M31.74 12.17c0,0 -0.31,0.7 -0.33,1.07 -0.02,0.36 -0.1,0.6 0.33,0.67 0.42,0.08 0.78,-0.13 0.97,-0.5 0,0 0.3,-0.56 0.24,-0.79 -0.07,-0.23 -1.21,-0.45 -1.21,-0.45z"/>
   <path class="fil1" d="M32.57 13.15l-0.03 -0.01c-0.03,-0.01 -0.04,-0.05 -0.03,-0.08 0.06,-0.12 0.18,-0.38 0.03,-0.44 -0.2,-0.08 -0.96,-0.24 -1.13,-0.51 -0.16,-0.26 -0.02,-0.6 0.19,-0.7 0.02,0 0.04,0 0.04,0.01l0.02 0.04c0.01,0.02 0.05,0.02 0.05,-0.01 0.01,-0.02 0.04,-0.03 0.06,-0.01 0.05,0.09 0.18,0.22 0.55,0.29 0.52,0.09 0.87,0.3 0.88,0.67 0,0.02 0.02,0.03 0.04,0.02 0.04,-0.02 0.1,-0.04 0.19,0.03 0.14,0.13 0.08,0.44 -0.23,0.7 -0.02,0.01 -0.02,0.03 0,0.04 0.06,0.04 0.14,0.13 -0.08,0.25 -0.23,0.12 -0.4,0.11 -0.46,0.1 -0.02,-0.01 -0.03,-0.02 -0.03,-0.04l0.07 -0.32c0.01,-0.01 -0.01,-0.03 -0.03,-0.03l-0.1 0z"/>
   <path class="fil21" d="M32.55 13.22c0,0 0.12,-0.45 0.32,-0.32 0.2,0.12 -0.11,0.5 -0.27,0.51l-0.05 -0.19z"/>
   <path class="fil22" d="M26.07 13.45c0.01,0 0.02,0 0.03,-0.01 0.01,-0.01 0.01,-0.04 0,-0.05 -0.03,-0.04 -0.32,-0.4 -0.44,-0.47 -0.04,-0.02 -0.06,-0.04 -0.07,-0.06 0,-0.01 0,-0.03 0.01,-0.04l0.34 0.07 0.2 0.17c0.01,0.01 0.04,0.01 0.05,-0.01 0.01,-0.01 0.01,-0.04 0,-0.05l-0.21 -0.18c0,0 -0.01,0 -0.01,0l-0.38 -0.08c-0.02,0 -0.03,0 -0.04,0.02 -0.03,0.04 -0.04,0.08 -0.03,0.11 0.01,0.05 0.04,0.09 0.11,0.12 0.08,0.05 0.32,0.34 0.41,0.44 0.01,0.01 0.02,0.02 0.03,0.02z"/>
   <path class="fil16" d="M32.57 19.79l-1.35 0.02 0.47 -0.45c0.12,-0.11 0.3,-0.12 0.43,-0.04 0.08,0.05 0.17,0.12 0.24,0.22 0,0 0.84,-0.31 1.25,-1 0.12,0.19 0.27,0.45 0.4,0.77 -0.36,0.21 -0.84,0.38 -1.44,0.48z"/>
   <path class="fil1" d="M32.42 19.96c0,0 0,0 -0.01,0l-3.41 0c-0.08,0 -0.15,-0.07 -0.15,-0.15 0,-0.09 0.07,-0.15 0.15,-0.15l3.41 0c0.09,0 0.16,0.07 0.16,0.15 0,0.08 -0.07,0.15 -0.15,0.15z"/>
   <path class="fil23" d="M25.94 16.9l2.84 0c0.21,0 0.4,0.12 0.49,0.31l1.31 2.75 -3.53 0c-0.13,0 -0.26,-0.08 -0.31,-0.21l-1.01 -2.54c-0.06,-0.15 0.05,-0.31 0.21,-0.31z"/>
   <path class="fil24" d="M27.94 18.31c0.06,0.19 0.01,0.37 -0.1,0.41 -0.12,0.04 -0.27,-0.08 -0.33,-0.27 -0.06,-0.19 -0.01,-0.38 0.1,-0.41 0.12,-0.04 0.27,0.08 0.33,0.27z"/>
  </g>
  <path class="fil25" d="M45.74 15.34c-0.41,-0.13 -0.24,-0.68 0.17,-0.55 0.41,0.13 0.24,0.68 -0.17,0.55zm-0.03 -0.78c-0.01,-0.14 0.05,-0.33 0.17,-0.45 0.2,-0.2 0.53,-0.18 0.62,-0.47 0.02,-0.07 0.02,-0.13 -0.02,-0.19 -0.08,-0.14 -0.29,-0.17 -0.45,-0.16 -0.11,0.01 -0.21,0.04 -0.32,0.09l0.16 -0.5c0.21,-0.06 0.43,-0.04 0.64,0.03 0.42,0.13 0.67,0.4 0.54,0.82 -0.12,0.39 -0.44,0.45 -0.68,0.57 -0.13,0.07 -0.19,0.14 -0.21,0.23 -0.02,0.05 -0.03,0.12 -0.01,0.17l-0.44 -0.14z"/>
  <g id="_2718125860464">
   <path class="fil23" d="M8.56 29.84c0,0 -0.09,0.47 -0.13,0.93 -0.01,0.19 0.13,0.34 0.31,0.35 0.62,0.03 1.94,0.08 2.42,0.06 0.07,-0.01 0.11,-0.08 0.09,-0.15 -0.03,-0.05 -0.07,-0.1 -0.12,-0.12l-2.19 -1.01 -0.38 -0.06z"/>
   <path class="fil26" d="M8.49 29.57l0.07 0.56c0,0 0.38,0.17 0.64,-0.03l-0.16 -0.62 -0.55 0.09z"/>
   <path class="fil27" d="M8.54 19.02c-0.03,0.14 -0.16,7.31 0.61,10.52 0.01,0.05 -0.01,0.11 -0.06,0.13 -0.12,0.04 -0.35,0.11 -0.63,0.12 -0.08,0.01 -0.16,-0.05 -0.18,-0.13 -0.22,-0.75 -1.27,-4.48 -1.41,-8.05 -0.15,-3.98 0,-0.13 0,-0.13l0.09 -2.46 1.58 0z"/>
   <path class="fil23" d="M6.04 30.09c0,0 -0.13,0.23 -0.26,0.86 -0.02,0.12 0.06,0.22 0.18,0.24 0.2,0.02 0.51,0.04 0.77,0.04 0.11,0 0.2,-0.1 0.19,-0.22 -0.03,-0.23 -0.12,-0.6 -0.38,-0.9l-0.5 -0.02z"/>
   <path class="fil28" d="M5.93 29.36l0.15 0.85c0,0 0.16,0.12 0.46,0.03l-0.07 -0.91 -0.54 0.03z"/>
   <path class="fil29" d="M5.51 19.24c-0.63,3.78 0.13,9.34 0.39,10.43 0.02,0.07 0.07,0.12 0.14,0.13 0.11,0.02 0.3,0.03 0.49,-0.02 0.06,-0.02 0.11,-0.08 0.11,-0.14 0.03,-0.88 -0.03,-6.29 0.55,-8.43 0.03,-0.1 0.1,-0.2 0.19,-0.26l1.14 -0.81 0.08 -1.3 -3.09 0.4z"/>
   <path class="fil30" d="M9.5 12.07c-1.88,-0.03 -3.95,0.5 -3.95,0.5 -0.56,3.26 -0.1,7.03 -0.1,7.03 1.46,0.38 3.09,-0.24 3.09,-0.24 0.25,-1.36 1.37,-5.2 1.37,-5.2 0.92,-0.12 1.68,-0.38 2.3,-0.73 -0.48,-0.55 -0.7,-1.25 -0.8,-1.66 -0.66,0.2 -1.33,0.31 -1.91,0.3z"/>
   <path class="fil31" d="M15.04 9.31c-0.18,-0.23 -0.41,-0.12 -0.41,-0.12 -0.28,1.17 -1.73,2.11 -3.22,2.58 0.1,0.41 0.32,1.11 0.8,1.66 2.47,-1.39 2.83,-4.12 2.83,-4.12z"/>
   <path class="fil31" d="M15 9.36c0.02,0.06 -0.2,0.16 -0.34,-0.09 0,-0.12 -0.07,-0.64 0,-0.74 0.38,-0.52 1.12,-1.17 1.12,-1.17 0.13,0.12 0.02,0.24 0.02,0.24l-0.36 0.38c0.08,0.13 0.17,0.25 0.22,0.41 0.03,0.13 0.01,0.26 -0.06,0.38 -0.06,0.11 -0.14,0.26 -0.23,0.37 -0.15,0.22 -0.37,0.22 -0.37,0.22z"/>
   <path class="fil31" d="M15.29 8.22l-0.33 0.28 -0.1 0.28 0.29 0.32c0,0 0.1,-0.55 0.17,-0.67 0.07,-0.12 0.04,-0.17 -0.03,-0.21z"/>
   <path class="fil15" d="M6.27 14.38l-0.72 -1.81c0,0 -1.75,1.19 -2.04,2.7 0.33,0.02 0.93,0.11 1.52,0.41 0.13,-0.72 1.24,-1.3 1.24,-1.3z"/>
   <path class="fil31" d="M7.8 16.09c0,0 -1.97,1.12 -2.63,0.17 -0.14,-0.2 -0.17,-0.4 -0.14,-0.58 -0.59,-0.3 -1.19,-0.39 -1.52,-0.41 -0.09,0.45 -0.04,0.94 0.22,1.43 1.17,2.13 4.33,-0.12 4.33,-0.12l-0.26 -0.49z"/>
   <polygon class="fil6" points="8.78,13.94 12.52,13.64 12.1,13.21 8.59,13.67 "/>
   <path class="fil1" d="M7.68 17.65l1.08 -3.76c0.01,-0.04 0.05,-0.07 0.09,-0.07 0.2,-0.03 0.76,-0.09 1.41,-0.15 0.78,-0.06 1.7,-0.12 2.24,-0.07 0.08,0.01 0.12,0.09 0.09,0.16 -0.31,0.62 -1.58,3.17 -2.22,4.01 -0.02,0.02 -0.05,0.04 -0.09,0.04l-2.49 -0.02c-0.07,0 -0.13,-0.07 -0.11,-0.14z"/>
   <path class="fil1" d="M8.46 13.6l3.62 -0.45c0.05,0 0.1,0.02 0.13,0.06 0.02,0.02 0,0.06 -0.03,0.07l-3.64 0.45 -0.08 -0.13z"/>
   <path class="fil23" d="M8.85 13.82l-1.13 3.94 -0.41 -0.25c-0.04,-0.03 -0.06,-0.08 -0.05,-0.13l1.14 -3.75c0.01,-0.03 0.04,-0.04 0.06,-0.03l0.39 0.22z"/>
   <path class="fil32" d="M7.34 17.01c-0.07,-0.02 0.12,-0.86 0.26,-1.05 0.14,-0.18 0.21,-0.44 0.6,-0.38 0.39,0.06 0.85,0.23 0.85,0.23 0,0 -0.02,0.28 -0.32,0.19l0.19 0.14c0,0 -0.03,0.23 -0.28,0.11l0.17 0.18c0,0 -0.08,0.15 -0.29,0.07 -0.93,-0.34 -0.66,0.58 -1.18,0.51z"/>
   <path class="fil31" d="M7.6 10.55l-0.6 1.73c-0.01,0.02 0,0.06 0.03,0.07 0.16,0.09 0.75,0.35 1.45,-0.1 0.08,-0.04 0.13,-0.12 0.14,-0.21l0.19 -1.49 -1.21 0z"/>
   <path class="fil33" d="M8.9 8.95c0,0 0.65,1.23 0.57,1.73 -0.08,0.5 -0.9,0.46 -1.61,0.06l-0.49 -1.33 1.53 -0.46z"/>
   <path class="fil1" d="M7.89 10.08c0.03,-0.01 0.04,-0.04 0.03,-0.07 -0.06,-0.08 -0.16,-0.24 -0.19,-0.39 0,0 -0.11,-0.07 0.3,-0.17 0.42,-0.1 1.04,-0.26 1.18,-0.61 0.12,-0.35 -0.21,-1.22 -0.75,-0.53 -0.02,0.03 -0.06,0.03 -0.08,0 -0.09,-0.11 -0.32,-0.35 -0.64,-0.21 -0.3,0.14 -0.33,0.36 -0.33,0.47 0,0.03 -0.03,0.06 -0.06,0.05 -0.15,-0.03 -0.51,-0.05 -0.68,0.32 -0.14,0.31 -0.05,0.48 0.03,0.57 0.03,0.03 0.02,0.07 -0.02,0.08 -0.1,0.03 -0.23,0.12 -0.22,0.35 0.02,0.32 0.38,0.29 0.49,0.28 0.01,0 0.03,0 0.04,0.02 0.09,0.09 0.49,0.51 0.92,0.56 0.03,0 0.06,-0.04 0.05,-0.07l-0.19 -0.54c-0.01,-0.03 0.01,-0.05 0.03,-0.06l0.09 -0.05z"/>
   <path class="fil34" d="M7.97 10.16c0,0 -0.47,-0.32 -0.5,-0.05 -0.04,0.27 0.42,0.39 0.64,0.29l-0.14 -0.24z"/>
   <polygon class="fil35" points="14.27,19.27 13.91,19.59 13.45,19.39 13.07,19.78 12.65,19.42 12.19,19.85 11.77,19.56 11.26,19.89 11.39,20.08 11.77,19.83 12.22,20.14 12.65,19.73 13.08,20.1 13.5,19.67 13.95,19.86 14.29,19.56 14.55,19.75 14.68,19.57 "/>
  </g>
  <path class="fil36" d="M48.48 16.64l-0.64 -0.64c-0.11,-0.11 -0.11,-0.28 0,-0.39l0.64 -0.64c0.11,-0.11 0.28,-0.11 0.39,0l0.64 0.64c0.11,0.11 0.11,0.28 0,0.39l-0.64 0.64c-0.11,0.11 -0.28,0.11 -0.39,0z"/>
  <path class="fil37" d="M48.23 24.83l0.51 0.03c0,0 0.67,-0.44 0.71,-0.61 0.03,-0.17 -0.04,-0.54 0.06,-0.58 0.1,-0.03 0.31,-0.05 0.43,0.19 0.08,0.17 -0.05,0.76 0.01,0.81 0.03,0.03 0.33,0.05 0.54,0.07 0.14,0.01 0.26,0.1 0.32,0.23l0 0c0.04,0.09 0.01,0.19 -0.07,0.25l-0.12 0.09 0.08 0.13c0.06,0.09 0.03,0.22 -0.06,0.28l-0.1 0.06 0.06 0.08c0.07,0.09 0.04,0.23 -0.06,0.29l-0.09 0.05 0.01 0.03c0.04,0.1 0.01,0.21 -0.08,0.26l-0.09 0.05 -1.35 -0.09c-0.13,0 -0.25,-0.04 -0.37,-0.1l-0.47 -0.11c-0.05,-0.01 -0.08,-0.06 -0.08,-0.11l0.1 -1.2c0,-0.06 0.05,-0.11 0.11,-0.1z"/>
  <polygon class="fil38" points="30.28,4.23 30.89,4.77 31.66,4.44 32.31,5.09 33.02,4.48 33.79,5.2 34.51,4.71 35.36,5.28 35.14,5.6 34.51,5.18 33.75,5.69 33.01,5 32.29,5.62 31.57,4.9 30.82,5.23 30.25,4.72 29.8,5.04 29.58,4.73 "/>
  <path class="fil25" d="M40.4 9.24c0.3,-0.36 0.26,-0.9 -0.11,-1.2 -0.36,-0.3 -0.9,-0.26 -1.2,0.1 -0.3,0.37 -0.25,0.9 0.11,1.21 0.36,0.3 0.9,0.25 1.2,-0.11zm-0.26 -0.21c0.19,-0.22 0.16,-0.55 -0.06,-0.74 -0.22,-0.18 -0.55,-0.15 -0.73,0.07 -0.19,0.22 -0.16,0.55 0.06,0.73 0.22,0.19 0.55,0.16 0.73,-0.06zm-0.81 0.81c-0.02,-0.01 -0.04,0 -0.05,0.02 -0.07,0.09 -0.25,0.18 -0.34,0.21l-0.41 -0.34c0.02,-0.1 0.07,-0.29 0.15,-0.37 0.01,-0.02 0.02,-0.04 0.01,-0.06l-0.14 -0.39c-0.01,-0.02 -0.03,-0.04 -0.05,-0.04 -0.11,-0.01 -0.28,-0.12 -0.35,-0.19l0.09 -0.52c0.09,-0.04 0.29,-0.08 0.39,-0.06 0.03,0.01 0.05,0 0.06,-0.02l0.27 -0.32c0.01,-0.01 0.02,-0.04 0.01,-0.06 -0.05,-0.1 -0.03,-0.3 -0.01,-0.4l0.49 -0.18c0.08,0.07 0.22,0.21 0.25,0.31 0.01,0.03 0.03,0.04 0.05,0.05l0.41 0.07c0.02,0 0.04,-0.01 0.06,-0.03 0.06,-0.08 0.24,-0.17 0.34,-0.21l0.4 0.34c-0.02,0.1 -0.07,0.29 -0.15,0.38 -0.01,0.01 -0.02,0.04 -0.01,0.06l0.14 0.39c0.01,0.02 0.03,0.03 0.05,0.04 0.11,0.01 0.28,0.12 0.35,0.18l-0.09 0.53c-0.09,0.03 -0.28,0.08 -0.39,0.05 -0.02,0 -0.05,0.01 -0.06,0.02l-0.27 0.32c-0.01,0.02 -0.02,0.04 -0.01,0.06 0.05,0.11 0.03,0.3 0.01,0.4l-0.49 0.19c-0.08,-0.07 -0.22,-0.21 -0.25,-0.32 -0.01,-0.02 -0.02,-0.04 -0.05,-0.04l-0.41 -0.07z"/>
  <path class="fil39" d="M42.9 8.73c-0.18,0.22 -0.51,0.25 -0.73,0.06 -0.21,-0.18 -0.24,-0.5 -0.06,-0.72 0.18,-0.22 0.51,-0.24 0.72,-0.06 0.22,0.18 0.25,0.5 0.07,0.72zm0.22 0.46c-0.01,-0.02 -0.01,-0.04 0.01,-0.05l0.21 -0.26c0.01,-0.01 0.03,-0.02 0.04,-0.01 0.09,0.02 0.24,-0.02 0.32,-0.05l0.07 -0.41c-0.06,-0.05 -0.19,-0.14 -0.28,-0.15 -0.02,0 -0.03,-0.01 -0.04,-0.03l-0.11 -0.31c-0.01,-0.02 0,-0.04 0.01,-0.05 0.06,-0.06 0.1,-0.21 0.12,-0.29l-0.32 -0.27c-0.08,0.03 -0.22,0.09 -0.27,0.17 -0.02,0.01 -0.03,0.02 -0.05,0.01l-0.32 -0.05c-0.02,-0.01 -0.04,-0.02 -0.04,-0.04 -0.03,-0.08 -0.14,-0.19 -0.2,-0.24l-0.39 0.14c-0.02,0.08 -0.03,0.24 0.01,0.32 0.01,0.01 0,0.03 -0.01,0.04l-0.21 0.26c-0.01,0.01 -0.03,0.02 -0.05,0.01 -0.08,-0.02 -0.24,0.02 -0.31,0.05l-0.07 0.41c0.06,0.05 0.19,0.14 0.28,0.15 0.01,0 0.03,0.01 0.04,0.03l0.11 0.31c0.01,0.02 0,0.04 -0.01,0.05 -0.06,0.06 -0.11,0.21 -0.12,0.29l0.32 0.27c0.08,-0.02 0.22,-0.09 0.27,-0.16 0.01,-0.02 0.03,-0.03 0.05,-0.02l0.32 0.05c0.02,0.01 0.03,0.02 0.04,0.04 0.02,0.08 0.13,0.19 0.2,0.25l0.39 -0.15c0.01,-0.08 0.02,-0.24 -0.01,-0.31z"/>
  <path class="fil40" d="M2.61 24.3l-0.64 -0.65c-0.11,-0.1 -0.11,-0.28 0,-0.38l0.64 -0.64c0.11,-0.11 0.28,-0.11 0.38,0l0.65 0.64c0.1,0.1 0.1,0.28 0,0.38l-0.65 0.65c-0.1,0.1 -0.27,0.1 -0.38,0z"/>
  <polygon class="fil35" points="18.54,15.22 17.63,16.82 17.44,15.87 15.68,16.53 15.42,15.28 17.31,15.13 17.09,14.23 "/>
  <polygon class="fil35" points="25.48,8.17 25.85,9.97 26.32,9.13 27.8,10.3 28.43,9.2 26.68,8.47 27.17,7.68 "/>
  <path class="fil41" d="M13.24 5.7c-1.1,0.53 -2.41,0.06 -2.93,-1.03 -0.34,-0.72 -0.25,-1.54 0.16,-2.16 0.03,0 0.06,0 0.1,-0.02 0,0 0.03,-0.02 -0.12,0.29 -0.15,0.31 0,0.56 -0.01,0.36 0,-0.21 0.1,-0.18 0.09,0.12 -0.01,0.29 0.14,0.12 0.27,0.24 0.13,0.11 0.07,-0.07 0.23,0.19 0,0 0.12,0.05 0.24,-0.06 0.11,-0.11 0.03,0.13 -0.05,0.34 -0.08,0.2 -0.01,0.23 0.11,0.27 0.11,0.05 0.18,0.11 0.15,0.23 -0.02,0.12 0.16,0.07 0.24,0.1 0.07,0.03 0.14,0.21 0.07,0.34 -0.07,0.12 0.17,0.22 0.26,0.46 0.09,0.25 0.14,0.34 0.26,0.31 0.11,-0.04 -0.12,-0.2 -0.12,-0.32 0,-0.12 0.13,0.02 0.11,-0.3 0,0 0.22,-0.04 0.16,-0.37 0,0 0.16,-0.1 0.14,-0.21 -0.01,-0.1 -0.08,-0.14 0.07,-0.46 0.15,-0.31 -0.33,-0.27 -0.55,-0.17 0,0 -0.07,0.07 -0.05,-0.25 0.01,-0.14 -0.16,-0.02 -0.25,-0.1 -0.09,-0.08 -0.25,-0.14 -0.46,-0.02 -0.2,0.13 -0.22,0.23 -0.29,0.11 -0.07,-0.13 0,-0.24 -0.11,-0.2 -0.12,0.03 -0.07,0 -0.01,-0.16 0,0 -0.09,-0.01 -0.12,0.09 -0.04,0.1 -0.21,0.05 -0.14,-0.17 0.08,-0.22 0.25,-0.44 0.37,-0.15 0.12,0.3 0.03,-0.17 0.03,-0.17 0,0 0.06,-0.28 0.25,-0.39 0.19,-0.11 0.07,-0.06 0.03,-0.13 -0.03,-0.07 0.15,0.07 0.24,-0.02 0.09,-0.1 -0.15,-0.01 -0.16,-0.1 -0.02,-0.08 0.13,-0.12 0.23,-0.05 0.1,0.08 0.08,-0.11 -0.13,-0.2 -0.21,-0.09 -0.14,-0.01 -0.24,0.12 -0.09,0.13 -0.02,0.15 -0.1,0.04 -0.08,-0.1 -0.03,0.02 -0.12,-0.01 -0.09,-0.03 0.1,-0.08 0.19,-0.11 0.09,-0.04 0.04,-0.09 0.04,-0.09l0.06 -0.08c0,0 0.1,0.06 0.16,0.01 0.06,-0.04 -0.1,-0.1 -0.03,-0.11 0.08,-0.02 0.14,-0.13 0.19,-0.04 0.05,0.09 0.05,0.24 0.24,-0.02 0.03,-0.05 0.06,-0.08 0.08,-0.1 0.02,-0.01 0.04,-0.01 0.06,-0.01 0.01,0.02 0.02,0.04 0.06,0.04 0.13,0.02 0.08,-0.02 0.24,-0.01 0.17,0.02 0.12,0.14 0.23,0.11 0.1,-0.03 0.26,0.06 0.19,0.1 -0.07,0.05 -0.12,-0.04 -0.25,0 -0.12,0.04 0.07,0.01 0.18,0.05 0.11,0.03 0.14,0.11 0.08,0.18 -0.06,0.07 0.08,0.21 0.19,0.13 0.12,-0.08 0.01,-0.19 0.09,-0.19 0.09,0 0.1,0.09 0.23,0.08 0.14,-0.01 0.04,0.11 0.18,0.05 0.14,-0.05 0.23,-0.03 0.14,0.08 -0.1,0.11 -0.02,0.12 -0.18,0.05 -0.17,-0.08 -0.1,0.04 -0.17,-0.08 -0.07,-0.12 -0.19,0.08 -0.27,0.14 -0.08,0.05 0.03,0.11 -0.04,0.16 -0.08,0.06 -0.13,0.05 -0.01,0.24 0.12,0.19 0.09,0.26 -0.01,0.3 -0.09,0.04 0.13,0.07 0.24,0.19 0.11,0.11 0.16,0.19 0.33,0.04 0.17,-0.14 0.11,-0.11 0.19,-0.02 0.07,0.1 0.07,-0.11 0.14,-0.01 0.06,0.1 -0.13,0.22 0.02,0.23 0.14,0.02 0.14,0.22 0.1,0.28 -0.03,0.06 0.07,0.18 -0.02,0.3 -0.08,0.11 0.14,0.14 0.1,0.24 -0.03,0.1 -0.18,0.27 -0.03,0.4 0.15,0.14 0.1,0.04 0.19,-0.15 0.08,-0.19 0.11,-0.45 0.18,-0.48 0.03,-0.01 0.05,0.01 0.07,0.02 -0.09,0.71 -0.54,1.36 -1.23,1.69zm-1.94 -4.07c-1.16,0.55 -1.65,1.94 -1.1,3.09 0.55,1.16 1.94,1.65 3.09,1.1 1.16,-0.55 1.65,-1.94 1.1,-3.09 -0.55,-1.16 -1.94,-1.65 -3.09,-1.1z"/>
 </g>
</svg>
