<?xml version="1.0" encoding="UTF-8"?>
<!DOCTYPE svg PUBLIC "-//W3C//DTD SVG 1.1//EN" "http://www.w3.org/Graphics/SVG/1.1/DTD/svg11.dtd">
<!-- Creator: CorelDRAW 2020 (64-Bit) -->
<svg xmlns="http://www.w3.org/2000/svg" xml:space="preserve" width="600px" height="379px" version="1.1" style="shape-rendering:geometricPrecision; text-rendering:geometricPrecision; image-rendering:optimizeQuality; fill-rule:evenodd; clip-rule:evenodd"
viewBox="0 0 97.82 61.74"
 xmlns:xlink="http://www.w3.org/1999/xlink"
 xmlns:xodm="http://www.corel.com/coreldraw/odm/2003">
 <defs>
  <style type="text/css">
   <![CDATA[
    .str0 {stroke:#AEC8E9;stroke-width:0.15;stroke-miterlimit:22.9256}
    .str2 {stroke:#667378;stroke-width:0.15;stroke-miterlimit:22.9256}
    .str1 {stroke:#7690C9;stroke-width:0.15;stroke-miterlimit:22.9256}
    .fil8 {fill:#FEFEFE;fill-rule:nonzero}
    .fil14 {fill:#D9DADA;fill-rule:nonzero}
    .fil9 {fill:#C5C6C6;fill-rule:nonzero}
    .fil1 {fill:#AEC8E9;fill-rule:nonzero}
    .fil7 {fill:#AEC8E9;fill-rule:nonzero}
    .fil3 {fill:#667378;fill-rule:nonzero}
    .fil5 {fill:#2E65AD;fill-rule:nonzero}
    .fil12 {fill:#2E65AD;fill-rule:nonzero}
    .fil15 {fill:black;fill-rule:nonzero}
    .fil18 {fill:#293241;fill-rule:nonzero}
    .fil4 {fill:#355389;fill-rule:nonzero}
    .fil0 {fill:#829E27;fill-rule:nonzero}
    .fil10 {fill:#8FBF32;fill-rule:nonzero}
    .fil6 {fill:#D1D1D1;fill-rule:nonzero}
    .fil17 {fill:#F47458;fill-rule:nonzero}
    .fil13 {fill:#F7A491;fill-rule:nonzero}
    .fil16 {fill:#FC8899;fill-rule:nonzero}
    .fil2 {fill:#FCFCFC;fill-rule:nonzero}
    .fil11 {fill:#FFC3B5;fill-rule:nonzero}
   ]]>
  </style>
 </defs>
 <g id="Layer_x0020_1">
  <metadata id="CorelCorpID_0Corel-Layer"/>
  <path class="fil0" d="M85.1 13.56l-2.7 2.69c-0.53,0.53 -1.39,0.53 -1.91,0l-2.7 -2.69c-0.53,-0.54 -0.53,-1.39 0,-1.92l2.7 -2.7c0.52,-0.53 1.38,-0.53 1.91,0l2.7 2.7c0.53,0.53 0.53,1.38 0,1.92z"/>
  <path class="fil1" d="M37.64 1.71c0,0 14.91,-4.34 29.04,5.12 14.14,9.45 12.02,22.83 12.02,22.83 0,0 15.87,2.43 18.41,15.05 2.54,12.61 -2.6,16.87 -2.6,16.87l-88.57 0.16c0,0 -13.8,-34.76 0.66,-51.14 14.46,-16.38 31.04,-8.89 31.04,-8.89z"/>
  <path class="fil2" d="M39.76 59.53l-26.13 -0.02c-0.87,0 -1.61,-0.51 -1.71,-1.17l-5.07 -32.43c-0.09,-0.54 0.47,-1.01 1.17,-0.99l25.39 0.71c0.56,0.02 1.02,0.35 1.09,0.78l5.26 33.12z"/>
  <path class="fil3" d="M9.39 25.91l22.94 0.65c0.56,0.01 1.03,0.34 1.09,0.77l4.97 31.32 -25.22 -0.11 -4.95 -31.64c-0.09,-0.54 0.47,-1.01 1.17,-0.99z"/>
  <path class="fil4" d="M64.04 61.74l-35.81 0c-1.02,0 -1.85,-0.72 -1.85,-1.61l0 -0.01 39.54 0 0 0c0,0.9 -0.84,1.62 -1.88,1.62z"/>
  <path class="fil5" d="M46.37 61.74l-31.36 0c-0.9,0 -1.62,-0.99 -1.62,-2.21l0 -0.02 34.61 0 0 0c0,1.23 -0.73,2.23 -1.63,2.23z"/>
  <path class="fil6" d="M31.01 38.25c0,0 3.21,0.72 6.08,-1.75l-1.45 -2.65c0,0 -3.33,2.32 -4.62,1.33l-0.01 3.07z"/>
  <path class="fil2" d="M34.2 36.17l-1.78 -2.91c0,0 3.48,-1.91 4.15,-3.31l2.27 2.05c0,0 -2.66,3.12 -4.64,4.17z"/>
  <polygon class="fil7" points="17.88,27.04 17.95,27.6 18.5,27.77 18.54,28.4 19.17,28.4 19.25,29.11 19.83,29.18 20.02,29.85 19.76,29.92 19.63,29.42 19.01,29.34 18.94,28.66 18.29,28.66 18.25,27.97 17.71,27.8 17.65,27.28 17.27,27.25 17.3,26.99 "/>
  <polygon class="fil2" points="47.05,5.31 46.29,5.39 46.03,4.19 44.92,4.16 44.58,3.29 44.14,3.47 44.59,4.63 45.65,4.65 45.92,5.9 47.06,5.79 "/>
  <path class="fil2" d="M28.71 18.35l0.71 0.05c0,0 0.94,-0.61 0.99,-0.85 0.05,-0.23 -0.06,-0.75 0.08,-0.8 0.15,-0.05 0.44,-0.08 0.6,0.25 0.12,0.24 -0.06,1.07 0.02,1.13 0.05,0.04 0.45,0.08 0.75,0.1 0.19,0.02 0.36,0.14 0.44,0.32l0 0c0.05,0.13 0.01,0.27 -0.09,0.35l-0.17 0.12 0.11 0.18c0.08,0.13 0.04,0.31 -0.09,0.39l-0.13 0.09 0.08 0.1c0.1,0.14 0.06,0.33 -0.09,0.42l-0.11 0.07 0.01 0.03c0.06,0.14 0.01,0.3 -0.12,0.37l-0.12 0.06 -1.88 -0.11c-0.18,-0.02 -0.35,-0.06 -0.51,-0.14l-0.65 -0.16c-0.07,-0.01 -0.12,-0.08 -0.11,-0.15l0.13 -1.68c0,-0.08 0.07,-0.14 0.15,-0.14z"/>
  <polygon class="fil2" points="72.25,30.16 71.56,30.1 71.46,30.74 70.78,30.72 70.61,31.32 70.1,31.38 70.13,31.64 70.82,31.56 70.97,30.99 71.69,31.01 71.78,30.38 72.41,30.43 "/>
  <polygon class="fil2" points="59.04,6.83 59.73,6.81 59.75,6.16 60.44,6.11 60.53,5.49 61.04,5.37 60.97,5.11 60.3,5.28 60.21,5.86 59.5,5.92 59.48,6.55 58.85,6.57 "/>
  <polygon class="fil8" points="14.11,34.44 14.53,34.81 15.06,34.58 15.5,35.03 15.98,34.61 16.5,35.1 16.99,34.77 17.57,35.15 17.43,35.37 16.99,35.08 16.47,35.43 15.97,34.97 15.48,35.39 15,34.89 14.48,35.12 14.09,34.77 13.79,34.99 13.64,34.78 "/>
  <path class="fil9" d="M84.57 48.73l-31.07 0c-1.19,0 -2.15,-0.82 -2.15,-1.84l0 -1.09c0,-1.02 0.96,-1.84 2.15,-1.84l31.07 0 0 0c-1.42,1.33 -1.44,3.36 -0.05,4.72l0.05 0.05z"/>
  <path class="fil2" d="M66.25 44.47c-1.06,0 -1.92,0.79 -1.92,1.76l0 0c0,0.98 0.86,1.77 1.92,1.77l17.74 0c-0.6,-1.11 -0.55,-2.46 0.13,-3.53l-17.87 0z"/>
  <path class="fil3" d="M87.37 48.58l-36.54 0c-1.14,0 -2.06,0.96 -2.06,2.14l0 1.8c0,1.19 0.92,2.15 2.06,2.15l36.54 0 -0.02 -0.02c-1.56,-1.7 -1.55,-4.38 0.02,-6.07z"/>
  <path class="fil2" d="M86.72 49.48l-19.53 0c-1.14,0 -2.06,0.96 -2.06,2.14l0 0c0,1.19 0.92,2.15 2.06,2.15l19.53 0c-0.72,-1.33 -0.71,-2.96 0,-4.29z"/>
  <path class="fil6" d="M86.72 54.67l-42.13 0c-1.31,0 -2.37,1.08 -2.37,2.41l0 2.02c0,1.33 1.06,2.41 2.37,2.41l42.13 0 -0.02 -0.02c-1.8,-1.91 -1.79,-4.93 0.02,-6.82z"/>
  <path class="fil2" d="M85.98 55.68l-22.53 0c-1.31,0 -2.37,1.08 -2.37,2.41l0 0c0,1.33 1.06,2.41 2.37,2.41l22.53 0c-0.83,-1.49 -0.83,-3.33 0,-4.82z"/>
  <path class="fil6" d="M81.46 39.44l-14.35 0c-0.19,0 -0.35,-0.16 -0.35,-0.35l0 -1.21c0,-0.19 0.16,-0.35 0.35,-0.35l14.35 0c0.19,0 0.35,0.16 0.35,0.35l0 1.21c0,0.19 -0.16,0.35 -0.35,0.35z"/>
  <path class="fil3" d="M67.66 39.78l0.11 -0.13 -7.59 -0.2c0,0.33 0,2.76 0,3.11l7.75 -0.28 -0.34 -0.29c-0.68,-0.59 -0.69,-1.68 0.07,-2.21z"/>
  <path class="fil3" d="M82.6 43.96l-22.93 0c-0.14,0 -0.25,-0.12 -0.25,-0.26l0 -0.17c0,-0.14 0.11,-0.25 0.25,-0.25l22.93 0c0.14,0 0.25,0.11 0.25,0.25l0 0.17c0,0.14 -0.11,0.26 -0.25,0.26z"/>
  <path class="fil10" d="M82.6 43.28l-22.69 0 0 -0.87c0,-0.24 0.19,-0.43 0.43,-0.43l20.95 0c0.72,0 1.31,0.58 1.31,1.3l0 0z"/>
  <path class="fil3" d="M80.53 34.18l-19.89 3.91c-2.29,0.51 -1.42,2.5 -1.02,2.5l23.29 -2.49c0,-0.8 0.49,-4.33 -2.38,-3.92z"/>
  <path class="fil11" d="M52.85 14.24c0,0 -2.11,3.35 -2.19,3.34 -0.11,0 -0.95,-1.96 -0.77,-2.81 0.14,-0.65 -0.05,-1.58 -0.05,-1.58 0,0 -1.31,0.54 -1.22,1.38 0.05,0.45 0.29,1.34 0.29,1.34 0,0 0.21,2.5 0.64,4.04 0.4,1.47 4.71,-3.46 4.71,-3.46l-1.41 -2.25z"/>
  <path class="fil2" d="M54.26 16.49l-1.67 -2.25c0,0 -1.18,1.61 -1.83,2.58 0.25,0.29 0.76,0.78 1,1.1 0.16,0.22 0.29,0.54 0.44,0.79 1.07,-1.01 2.06,-2.22 2.06,-2.22z"/>
  <path class="fil11" d="M49.31 13.58c0,0 0.54,-0.59 0.67,-0.39 0.12,0.21 0.16,0.7 0.06,0.67 -0.1,-0.02 -0.12,-0.35 -0.38,-0.23 -0.07,0.03 -0.43,0.19 -0.35,-0.05z"/>
  <path class="fil10" d="M51.41 11.35l0.26 0.06c0.15,0.04 0.25,0.18 0.26,0.33l0.01 0.28c0,0.17 -0.12,0.32 -0.29,0.35l-0.27 0.05 0.03 -1.07z"/>
  <path class="fil12" d="M51.03 12.58l-0.28 0.25 -0.04 0.28c0,0 -0.33,1.76 -0.51,2.03 -0.18,0.26 -0.81,0.14 -0.86,0.01 -0.04,-0.13 0.33,-1.19 0.33,-1.19l-0.11 -0.84 -0.33 -0.28 1.8 -0.26z"/>
  <path class="fil12" d="M48.8 10.88l2.34 0.21c0.21,0.02 0.38,0.2 0.38,0.42l0 0.85c0,0.21 -0.16,0.38 -0.37,0.41l-2.28 0.29 -0.07 -2.18z"/>
  <path class="fil12" d="M48.81 10.8l0.1 2.29c0.01,0.17 -0.11,0.32 -0.28,0.36l-4.16 0.97 -0.48 -4.54 4.52 0.59c0.17,0.02 0.3,0.16 0.3,0.33z"/>
  <path class="fil12 str0" d="M43.47 12.23c0.11,1.25 0.56,2.23 1,2.19 0.44,-0.03 0.71,-1.08 0.6,-2.33 -0.11,-1.25 -0.55,-2.23 -1,-2.19 -0.44,0.04 -0.71,1.08 -0.6,2.33z"/>
  <path class="fil10 str1" d="M44.49 14.09c0.2,-0.22 0.37,-0.99 0.28,-1.97 -0.1,-1.23 -0.52,-1.91 -0.67,-1.92l0 0c0,0 -0.02,0.01 -0.04,0.03 -0.21,0.22 -0.38,0.99 -0.29,1.97 0.11,1.23 0.52,1.91 0.67,1.92 0,0 0,0 0.01,0 0,0 0.01,-0.01 0.04,-0.03z"/>
  <path class="fil11" d="M49.13 14.3l0.38 -0.27c0,0 0.26,-0.16 0.5,-0.07 0.24,0.08 0.37,-0.21 0.11,-0.28 -0.26,-0.08 -0.44,-0.09 -0.44,-0.09 0,0 0.6,-0.02 0.62,-0.05 0.14,-0.15 -0.09,-0.35 -0.57,-0.26 -0.49,0.1 -0.6,1.02 -0.6,1.02z"/>
  <path class="fil11" d="M50.5 13.96c0,0 -0.54,0.3 -0.5,0.5 0.03,0.2 0.4,0.08 0.4,0.08 0,0 0.44,-0.58 0.15,-0.64l-0.05 0.06z"/>
  <path class="fil13" d="M65.48 34.61c0,0 -0.11,1.25 -0.11,1.25 -0.03,0.16 -0.14,0.55 -0.15,0.7 -0.01,0.54 2.44,-0.4 1.9,-0.65 -0.05,-0.03 -0.3,-0.2 -0.31,-0.38 -0.02,-0.29 -0.06,-0.87 -0.06,-0.87l-1.27 -0.05z"/>
  <path class="fil12" d="M67.12 35.9c0,0 -0.58,0.15 -0.87,0.19 -0.29,0.03 -0.67,-0.33 -0.88,-0.24 -0.23,0.1 -0.25,1.36 -0.25,1.36 0,0 2.95,-0.5 3.81,-0.75 0.35,-0.1 -0.36,-0.41 -1.81,-0.56z"/>
  <path class="fil13" d="M56.61 41.63c0,0 -0.07,1.26 -0.07,1.26 -0.03,0.16 -0.13,0.56 -0.13,0.7 0,0.54 2.42,-0.46 1.88,-0.7 -0.05,-0.03 -0.39,-0.31 -0.4,-0.5 -0.03,-0.28 -0.01,-0.74 -0.01,-0.74l-1.27 -0.02z"/>
  <path class="fil12" d="M58.28 42.88c0,0 -0.57,0.17 -0.86,0.21 -0.29,0.04 -0.67,-0.31 -0.88,-0.21 -0.23,0.1 -0.22,1.08 -0.22,1.08 0,0 3.46,0.15 4.22,-0.07 0.34,-0.1 -1.1,-0.62 -2.26,-1.01z"/>
  <path class="fil9" d="M58.78 22.08l1.96 0.75c0,0 6.84,0.78 7.31,1.52 0.78,1.23 -1.15,10.62 -1.15,10.62l-1.68 0 0.16 -6.65 0.36 -1.51c-0.52,-0.14 -8.87,0.36 -8.87,0.36l1.91 -5.09z"/>
  <path class="fil14" d="M60.64 22.7l-0.49 10.07 -1.87 9.38 -1.72 -0.01c0,0 -0.14,-2.29 0.14,-5.63 0.16,-1.9 0.45,-2.06 0.43,-4.21 -0.02,-2.38 -0.96,-5.14 -1.03,-6.1 -0.02,-0.24 -0.28,-1.73 -0.13,-1.88 1.13,-1.17 4.67,-1.62 4.67,-1.62z"/>
  <path class="fil11" d="M70.33 12.11c0,-0.2 -2.07,0.19 -2.29,0.19 -0.14,0 -0.41,0.23 -0.6,0.41 -0.1,0.1 -0.22,0.15 -0.36,0.16 -0.32,0.02 -0.67,0.04 -0.67,0.04 0,0 -3.51,0.17 -3.7,0.17l-5.35 -0.78 -0.03 2.58c0,0 4.59,-0.13 4.79,-0.09 0.19,0.04 4.17,-0.67 5.16,-0.83 0,0 1.48,-0.15 1.61,-0.42 0.14,-0.27 -0.07,-0.77 0.05,-0.89 0.11,-0.11 1.39,-0.33 1.39,-0.54z"/>
  <path class="fil6" d="M60.8 12.58l-3.44 -0.28 -0.03 2.58c0,0 2.24,-0.03 3.66,-0.06 -0.17,-0.66 -0.28,-1.56 -0.19,-2.24z"/>
  <path class="fil2" d="M55.79 12.65c0,0 1.26,-0.44 1.63,-0.34 0.43,0.11 1.72,1.96 2.69,8.12 0.14,0.89 0.63,2.4 0.63,2.4 0,0 -3.01,2.01 -4.82,2.01 0,0 -0.3,-2.9 -0.56,-3.54 -0.25,-0.64 -2.83,-6.41 -2.86,-6.87 -0.02,-0.25 0.68,-0.63 0.96,-0.82 0.69,-0.46 2.33,-0.96 2.33,-0.96z"/>
  <path class="fil11" d="M54.79 11.04l1 1.69c0,0 0.03,1.32 -0.64,1.37 -0.57,0.04 -1.2,-0.75 -1.2,-0.75 0,0 -0.13,-1.13 -0.41,-1.6 -0.29,-0.48 1.25,-0.71 1.25,-0.71z"/>
  <path class="fil7" d="M53.51 12.25c-0.1,-0.18 0.47,-0.26 0.47,-0.26l0.03 0.05c-0.01,0.04 -0.01,0.08 -0.02,0.12 -0.07,0.17 -0.22,0.31 -0.38,0.38 -0.02,-0.11 -0.05,-0.22 -0.1,-0.29z"/>
  <path class="fil11" d="M54.01 8.4c0,0 -1.27,-0.6 -1.86,0.31 -0.38,0.6 -0.16,1.74 0.22,2.57 0.03,-0.02 0.06,-0.03 0.08,-0.04 0.23,-0.07 0.46,0.03 0.51,0.22 0.06,0.16 -0.05,0.35 -0.23,0.44 0.1,0.13 0.2,0.23 0.3,0.28 0.55,0.3 1.51,-0.3 1.81,-1.08 0.31,-0.77 -0.79,-2.73 -0.83,-2.7z"/>
  <path class="fil15" d="M52.03 7.48c0.69,-0.12 1.25,0.1 1.47,0.21 0.3,-0.08 0.76,-0.08 1.43,0.42 0.83,0.63 0.83,1.69 0.42,2.36 -0.4,0.68 -0.19,1.2 -0.19,1.2l-0.2 -0.23c-0.15,-0.18 -0.26,-0.38 -0.32,-0.6 -0.04,-0.14 -0.07,-0.28 -0.06,-0.42 0.02,-0.35 -0.5,-0.38 -0.72,-0.58 -0.17,-0.15 -0.35,-0.58 -0.62,-0.84l-0.28 -0.17c0,0 -0.54,-0.16 -0.91,0.1 -0.37,0.25 -0.91,-1.28 -0.02,-1.45z"/>
  <path class="fil11" d="M54.04 10.2c0.09,0.25 0.29,0.41 0.44,0.36 0.14,-0.06 0.18,-0.31 0.09,-0.56 -0.1,-0.25 -0.29,-0.42 -0.44,-0.36 -0.15,0.06 -0.19,0.31 -0.09,0.56z"/>
  <path class="fil11" d="M37.21 59.11c0,0 -0.21,1.19 -0.21,1.2 -0.01,0.15 0,0.54 -0.03,0.68 -0.12,0.5 -2.16,-0.96 -1.6,-1.07 0.05,-0.01 0.33,-0.11 0.38,-0.28 0.09,-0.26 0.27,-0.78 0.27,-0.78l1.19 0.25z"/>
  <path class="fil7" d="M35.38 59.92c0,0 0.49,0.28 0.75,0.38 0.27,0.1 0.7,-0.14 0.87,-0.01 0.19,0.15 -0.12,1.28 -0.12,1.28 0,0 -3.01,-0.45 -3.75,-0.9 -0.3,-0.17 1.08,-0.64 2.25,-0.75z"/>
  <path class="fil13" d="M48.98 53.55c0,0 1.2,-0.17 1.2,-0.17 0.15,-0.04 0.52,-0.17 0.65,-0.19 0.52,-0.04 -0.23,2.36 -0.51,1.86 -0.02,-0.05 -0.2,-0.28 -0.38,-0.28 -0.28,0 -0.83,-0.01 -0.83,-0.01l-0.13 -1.21z"/>
  <path class="fil12" d="M50.32 55.04c0,0 0.11,-0.55 0.12,-0.84 0.02,-0.28 -0.35,-0.62 -0.28,-0.82 0.08,-0.23 1.26,-0.29 1.26,-0.29 0,0 0.51,3.01 0.31,3.85 -0.07,0.34 -0.95,-0.82 -1.41,-1.9z"/>
  <path class="fil11" d="M42.83 39.21l-1.55 0.65 0.34 2.63c-0.04,0.16 -2.41,3.17 -2.41,3.17 0,0 0.25,0.41 0.54,0.47 0.24,-0.57 3.5,-3.17 3.51,-3.34 0.01,-0.18 -0.43,-3.58 -0.43,-3.58z"/>
  <polygon class="fil2" points="43.95,47.6 37.84,45.13 39.58,41.03 45.39,43.97 "/>
  <polygon class="fil6" points="44.42,47.48 38.08,45.04 39.81,40.93 46.16,43.37 "/>
  <polygon class="fil12" points="43.86,47.75 37.52,45.31 39.26,41.2 45.6,43.64 "/>
  <path class="fil0" d="M43.88 43.71l-0.77 2.32c0,0 -0.59,6.03 -0.29,8.83 0.13,1.17 6.84,0.2 6.84,0.2l-0.13 -1.92 -4.22 -0.13 1.6 -4.64 -0.03 -3.84 -3 -0.82z"/>
  <path class="fil10" d="M48.22 45.61c0.25,1.58 -1.31,2.76 -1.31,2.76l-6.47 5.6 -2.98 5.85c0,0 -1.25,-0.07 -1.74,-0.5 0,0 1.29,-4.91 2.38,-6.92 1,-1.85 5.26,-6.65 5.26,-6.65l3.36 -3.33c0,0 1.36,2.37 1.5,3.19z"/>
  <path class="fil12" d="M41.33 40.82l1.9 -0.39c0,0 -0.41,-1.48 -0.65,-2.17 -0.28,-0.84 -0.8,-1.85 -0.9,-1.78 -0.25,0.17 -0.54,0.37 -0.67,0.76 -0.45,1.34 0.32,3.58 0.32,3.58z"/>
  <path class="fil11" d="M50.5 45.71c0.13,-0.53 0.21,-0.48 0.23,-0.55 0.02,-0.08 -0.39,-1.11 -0.39,-1.11 0,0 -1.15,-3.04 -1.22,-3.2l-2.4 -2.39 0.86 -1.5c0,0 2.54,2.67 2.65,2.84 0.11,0.16 1.19,4.44 1.29,4.81 0,0 0.3,0.4 0.48,0.66 0.17,0.26 0.23,0.58 0.26,0.66 0.01,0.01 0.12,0.29 0.17,0.66 0.04,0.32 -0.15,0.03 -0.15,0.03 0,0 -0.18,-0.58 -0.23,-0.56 -0.03,0.02 0.09,0.33 0.14,0.69 0.01,0.09 0.02,0.18 0.03,0.26 0.03,0.22 -0.1,0.3 -0.16,0.07 -0.03,-0.08 -0.06,-0.21 -0.07,-0.31 -0.01,-0.1 -0.06,-0.19 -0.09,-0.28 -0.04,-0.17 -0.08,-0.3 -0.08,-0.3 -0.01,0.01 -0.04,-0.02 -0.03,0.08 0.01,0.12 0.09,0.36 0.1,0.53 0,0.1 0.02,0.31 0.02,0.31 0,0 -0.03,0.31 -0.05,0.32 -0.11,0.02 -0.15,-0.2 -0.14,-0.34 -0.03,-0.09 -0.04,-0.3 -0.04,-0.3 0,0 -0.13,-0.43 -0.19,-0.42 -0.03,0.01 0.02,0.28 0.02,0.56 0,0.25 -0.04,0.51 -0.09,0.52 -0.09,0.01 -0.12,-0.27 -0.12,-0.27 0,0 -0.01,-0.2 -0.02,-0.27 -0.02,-0.08 -0.06,-0.31 -0.06,-0.31 0,0 -0.22,-0.79 -0.27,-0.77 -0.06,0.02 -0.19,0.13 -0.19,0.19 -0.01,0.05 0.04,0.15 0.03,0.21 0,0.05 -0.05,0.11 -0.12,0.11 -0.07,0 -0.15,-0.26 -0.15,-0.26 0,0 -0.06,-0.22 -0.02,-0.37z"/>
  <path class="fil2" d="M44.03 35.64c0,0 1.25,-0.29 1.57,-0.19 0.35,0.12 1.33,0.9 1.33,0.9 0,0 -0.13,5.64 0.25,6.52 0.38,0.88 1.04,2.15 1.04,2.15 0,0 -3.54,1.34 -5.08,1.24 0,0 -0.26,-2.17 -0.44,-2.71 -0.19,-0.54 -1.77,-5.98 -1.69,-6.31 0.08,-0.34 0.37,-0.6 0.98,-0.94 0.61,-0.35 2.04,-0.66 2.04,-0.66z"/>
  <path class="fil11" d="M43.27 34.27l0.74 1.38c0,0 -0.25,2.11 -0.83,2.12 -0.49,0 -0.75,-1.66 -0.75,-1.66 0,0 -0.05,-0.93 -0.27,-1.33 -0.22,-0.4 1.11,-0.51 1.11,-0.51z"/>
  <path class="fil16" d="M42.16 34.78c-0.22,-0.4 1.11,-0.51 1.11,-0.51 0,0 0.01,0.07 -0.01,0.15 -0.11,0.6 -0.52,1.05 -0.89,1.18 -0.04,-0.24 -0.12,-0.65 -0.21,-0.82z"/>
  <path class="fil11" d="M42.59 31.96c0.04,-0.03 0.97,1.83 0.63,2.52 -0.34,0.7 -1.3,1.19 -1.81,0.88 -0.57,-0.34 -1.25,-2.43 -0.63,-3.23 0.63,-0.8 1.81,-0.17 1.81,-0.17z"/>
  <path class="fil15" d="M41.72 31.17c0.24,0.04 0.49,0.07 0.73,0.09 0.27,0.02 0.61,0.14 1.04,0.49 0.76,0.62 0.62,1.55 0.26,2.19 -0.29,0.5 -0.28,0.7 -0.28,0.7 -0.13,-0.17 -0.33,-0.32 -0.41,-0.51 -0.05,-0.11 -0.06,-0.17 -0.05,-0.29 0.04,-0.32 -0.45,-0.37 -0.65,-0.57 -0.16,-0.15 -0.3,-0.56 -0.55,-0.81l-0.26 -0.17c0,0 -0.51,-0.18 -0.88,0.03 -0.34,0.19 -0.63,-1.41 1.05,-1.15z"/>
  <path class="fil11" d="M42.5 33.61c0.08,0.23 0.25,0.39 0.4,0.35 0.14,-0.04 0.2,-0.27 0.12,-0.51 -0.07,-0.23 -0.25,-0.39 -0.4,-0.35 -0.14,0.04 -0.2,0.27 -0.12,0.51z"/>
  <path class="fil12" d="M48.76 37.79l-1.22 1.71c0,0 -0.9,-0.48 -1.54,-1.05 -1.12,-0.98 -0.94,-2.99 -0.51,-3.01 0.94,-0.05 3.27,2.35 3.27,2.35z"/>
  <path class="fil13" d="M32.9 40.99c0,0 -0.51,0.09 -0.51,0.05 0,-0.05 0.19,-0.03 0.78,-0.27 0.21,-0.08 0.2,-0.29 -0.27,-0.1 -0.08,0.03 -0.17,0.04 -0.24,0.05 -0.15,0.03 -0.26,0.06 -0.25,0.05 0,-0.01 -0.03,-0.02 0.04,-0.06 0.09,-0.04 0.31,-0.07 0.44,-0.14 0.07,-0.04 0.23,-0.12 0.23,-0.12 0,0 0.25,-0.15 0.25,-0.17 -0.02,-0.1 -0.23,-0.05 -0.32,0.02 -0.08,0.01 -0.25,0.09 -0.25,0.09 0,0 -0.37,0.08 -0.38,0.02 -0.01,-0.05 0.84,-0.44 0.81,-0.54 -0.03,-0.11 -0.46,0.11 -0.49,0.12 -0.06,0.03 -0.25,0.08 -0.25,0.08 0,0 -0.67,0.16 -0.68,0.1 0,-0.06 0.1,-0.16 0.14,-0.19 0.04,-0.02 0.08,-0.06 0.12,-0.08 0.04,-0.03 0.05,-0.09 0.03,-0.15 -0.03,-0.05 -0.2,0.01 -0.26,0.05 -0.17,0.12 -0.58,0.54 -0.63,0.58 -0.05,0.05 -3.24,-0.05 -3.56,-0.1l-0.06 -1.92 -1.55 0.46 0.45 2.67c0.28,0.79 4.49,-0.26 4.62,-0.29 0,0 0.41,0.04 0.67,0.08 0.26,0.05 0.51,-0.04 0.58,-0.04 0.01,0 0.27,0.02 0.57,-0.11 0.25,-0.1 -0.03,-0.14 -0.03,-0.14z"/>
  <path class="fil17" d="M31.49 40.62c0,0 0.35,-0.17 0.33,-0.44 0,0 0.06,0.15 -0.02,0.29 -0.09,0.13 -0.31,0.15 -0.31,0.15z"/>
  <path class="fil11" d="M17.04 50.8c-0.88,-0.03 -1.68,-0.2 -1.77,-0.22 -0.05,-0.02 -0.23,-0.17 -0.28,-0.19 -1.03,0.27 -1.54,1.07 -1.88,1.81 0.5,-0.23 1.17,-0.58 1.29,-0.56 0.2,0.03 0.98,0.09 2.13,0.46 -0.03,-0.56 0.26,-0.8 0.51,-1.3z"/>
  <path class="fil12" d="M15.24 50.56c-0.21,-0.29 -0.77,-0.76 -0.83,-0.72 -0.07,0.05 -2.4,1.96 -2.37,2.5 0.01,0.33 0.44,0.12 1.07,-0.14 0.34,-0.74 1.93,-1.78 2.13,-1.64z"/>
  <path class="fil11" d="M26.76 58.07c0.13,0.71 0.38,2.3 0.39,2.45 0,0.05 0.08,0.21 0.12,0.24 0.99,0.25 1.83,-0.19 2.48,-0.65 -0.54,-0.04 -1.25,-0.09 -1.36,-0.12 -0.12,-0.04 -0.29,-0.2 -0.33,-0.49 -0.09,-0.58 -0.04,-1.22 -0.33,-1.82 -0.26,0.48 -0.51,0.08 -0.97,0.39z"/>
  <path class="fil7" d="M27.15 60.51c0.02,0.34 0.2,1.09 0.27,1.08 0.09,-0.01 2.99,-0.72 3.3,-1.11 0.2,-0.25 -0.31,-0.31 -0.97,-0.37 -0.65,0.46 -2.51,0.61 -2.6,0.4z"/>
  <path class="fil6" d="M25.93 43.1l1.03 -0.03c0,0 -0.18,1.84 -0.15,2.44 0.04,0.6 1.15,5.82 1.13,6.47 -0.03,0.65 0.35,7.29 0.35,7.29l-1.37 0.01c0,0 -0.98,-4.34 -1,-5.24 -0.03,-0.98 -0.03,-1.85 -0.03,-1.85l-1.94 -4.99 1.98 -4.1z"/>
  <path class="fil2" d="M26.96 43.07c0,0 -3.01,10.35 -3.92,10.63 -1.16,0.35 -7.8,-1.73 -7.8,-1.73l0.43 -1.49c0,0 3.83,0.12 6.1,0.7 0,0 -0.04,-5.91 0.6,-6.75 0.64,-0.85 1.58,-1.88 1.58,-1.88l3.14 0.15 -0.13 0.37z"/>
  <path class="fil15" d="M25.85 30.68c-0.38,0.44 -0.9,0.33 -1.49,0.37 -0.39,0.02 -0.73,0.6 -0.78,1.07 -0.03,0.34 -0.14,0.7 -0.52,0.76 -0.15,0.02 -0.31,0 -0.46,-0.01 -1.6,-0.04 -2.18,1.68 -1.72,2.99 0.4,1.1 1.42,1.62 2.48,1.92 0.5,0.13 0.85,0.29 1.39,0.17 0.6,-0.13 1.17,-0.43 1.67,-0.77 0.89,-0.59 0.16,-1.17 0.45,-1.66 0.29,-0.5 1.54,-0.27 1.9,-1.33 0.38,-1.15 0.26,-1.91 -0.07,-2.58 -0.55,-1.1 -1.99,-1.39 -2.5,-1.18 -0.16,0.06 -0.27,0.15 -0.35,0.25z"/>
  <path class="fil7" d="M27.77 35.57c-0.42,-0.18 -1.47,-0.19 -1.47,-0.19 0,0 -0.83,-0.01 -2.13,0.32l-0.24 2.41c0,0 0.48,2.29 0.33,2.98 -0.12,0.56 -0.62,1.49 -0.62,1.49 0,0 -0.03,0.11 2.01,0.52 0.82,0.17 1.46,0.01 1.46,0.01 0,0 0.05,-0.9 0.3,-1.75 0.4,-1.4 1.09,-3.05 1.14,-3.26 0.07,-0.34 -0.35,-2.36 -0.78,-2.53z"/>
  <path class="fil11" d="M26.49 34.01c0,0 -0.13,0.98 -0.29,1.33 -0.16,0.35 0.1,1.71 0.87,1.97 0.77,0.27 0.16,-1.56 0.21,-1.94 0.05,-0.38 0.41,-1.49 0.41,-1.49l-1.2 0.13z"/>
  <path class="fil16" d="M27.51 34.44c0.1,-0.31 0.18,-0.56 0.18,-0.56l-1.2 0.13c0,0 -0.03,0.2 -0.07,0.45 0.42,0.24 0.8,0.19 1.09,-0.02z"/>
  <path class="fil11" d="M26.98 31.33c0,0 -0.47,0.09 -0.78,0.51 -0.31,0.43 -0.56,1.73 0.36,2.37 0.93,0.65 1.71,-0.17 1.76,-1.01 0.04,-0.84 -0.09,-1.96 -1.34,-1.87z"/>
  <path class="fil11" d="M28.54 32.95c-0.09,0.19 -0.25,0.31 -0.37,0.26 -0.11,-0.05 -0.13,-0.26 -0.04,-0.45 0.09,-0.2 0.25,-0.32 0.37,-0.27 0.11,0.05 0.13,0.26 0.04,0.46z"/>
  <path class="fil11" d="M26.13 33.01c0.06,0.22 -0.01,0.43 -0.16,0.47 -0.15,0.04 -0.32,-0.1 -0.38,-0.33 -0.06,-0.22 0.02,-0.43 0.16,-0.47 0.15,-0.04 0.32,0.11 0.38,0.33z"/>
  <polygon class="fil6" points="27.38,42.21 33.37,42.21 33.37,38.96 27.38,38.96 "/>
  <polygon class="fil2" points="31.49,42.21 33.37,42.21 33.37,38.96 31.49,38.96 "/>
  <path class="fil11" d="M31.59 42.28c0,0 -0.59,0.07 -0.59,0.03 0,-0.05 0.21,-0.02 0.91,-0.25 0.25,-0.08 0.24,-0.29 -0.31,-0.11 -0.1,0.04 -0.2,0.03 -0.28,0.05 -0.18,0.03 -0.3,0.05 -0.3,0.04 0,-0.01 -0.04,-0.03 0.05,-0.06 0.11,-0.03 0.36,-0.06 0.52,-0.13 0.08,-0.04 0.27,-0.11 0.27,-0.11 0,0 0.3,-0.14 0.29,-0.16 -0.02,-0.1 -0.26,-0.06 -0.37,0.01 -0.1,0.01 -0.29,0.08 -0.29,0.08 0,0 -0.44,0.07 -0.45,0.01 -0.01,-0.05 1,-0.41 0.97,-0.51 -0.04,-0.12 -0.55,0.09 -0.58,0.1 -0.07,0.02 -0.29,0.07 -0.29,0.07 0,0 -0.79,0.14 -0.8,0.09 0,-0.06 0.12,-0.16 0.17,-0.19 0.04,-0.02 0.09,-0.06 0.14,-0.08 0.04,-0.03 0.06,-0.08 0.03,-0.14 -0.02,-0.06 -0.23,0 -0.29,0.04 -0.21,0.11 -0.7,0.52 -0.75,0.56 -0.07,0.05 -3.79,-0.14 -4.16,-0.2l-0.02 -1.92 -1.82 0.41 0.47 2.68c0.3,0.8 5.24,-0.13 5.39,-0.15 0,0 0.48,0.05 0.78,0.1 0.3,0.05 0.59,-0.03 0.68,-0.03 0.01,0 0.31,0.02 0.66,-0.09 0.3,-0.1 -0.03,-0.14 -0.03,-0.14z"/>
  <path class="fil6" d="M31.49 40.1l1.88 0c0,0 1.03,-0.06 1.24,0.3l-2.18 0.18c0,0 0.12,-0.23 -0.94,-0.48z"/>
  <path class="fil2" d="M26.49 37.92c0,0 0.01,0.84 0.89,1.04l5.99 0c0,0 -4.22,-0.08 -4.36,-0.31 -0.14,-0.23 -0.1,-0.49 -0.1,-0.49l-2.42 -0.24z"/>
  <path class="fil12" d="M24.27 35.69c0,0 -0.45,-0.04 -0.76,0.65 -0.31,0.7 0.06,3.62 0.06,3.62l2.02 -0.24c0,0 0.22,-3.85 -1.32,-4.03z"/>
  <polygon class="fil12" points="71.45,18.1 70.03,20.58 69.74,19.1 67,20.12 66.59,18.19 69.53,17.96 69.19,16.56 "/>
  <polygon class="fil12" points="41.38,12.19 38.86,12.33 39.27,13.83 36.14,14.64 39.9,14.59 39.6,12.89 42.26,13.06 "/>
  <path class="fil0" d="M18.67 12.74c0.58,-0.12 0.95,-0.68 0.83,-1.25 -0.11,-0.58 -0.68,-0.95 -1.25,-0.83 -0.58,0.11 -0.95,0.67 -0.83,1.25 0.11,0.57 0.67,0.95 1.25,0.83zm-0.08 -0.41c0.35,-0.07 0.58,-0.41 0.5,-0.76 -0.07,-0.35 -0.41,-0.58 -0.76,-0.51 -0.35,0.07 -0.58,0.42 -0.51,0.77 0.08,0.35 0.42,0.57 0.77,0.5zm-1.42 0.16c-0.02,-0.02 -0.05,-0.03 -0.08,-0.02 -0.13,0.03 -0.37,-0.02 -0.49,-0.06l-0.13 -0.65c0.09,-0.08 0.3,-0.22 0.43,-0.24 0.03,-0.01 0.05,-0.03 0.06,-0.05l0.17 -0.49c0.01,-0.03 0,-0.06 -0.02,-0.08 -0.1,-0.1 -0.17,-0.33 -0.2,-0.46l0.5 -0.43c0.12,0.04 0.34,0.14 0.43,0.25 0.01,0.02 0.04,0.03 0.07,0.03l0.51 -0.11c0.03,0 0.05,-0.02 0.05,-0.05 0.04,-0.13 0.21,-0.32 0.3,-0.4l0.63 0.21c0.02,0.13 0.05,0.37 -0.01,0.5 -0.01,0.03 0,0.06 0.02,0.08l0.34 0.38c0.02,0.03 0.05,0.03 0.07,0.03 0.14,-0.04 0.38,0.01 0.5,0.06l0.13 0.64c-0.09,0.09 -0.3,0.23 -0.43,0.25 -0.03,0 -0.05,0.02 -0.06,0.05l-0.17 0.49c-0.01,0.03 0,0.06 0.02,0.07 0.1,0.1 0.17,0.34 0.2,0.46l-0.5 0.44c-0.12,-0.04 -0.34,-0.14 -0.43,-0.25 -0.02,-0.03 -0.04,-0.04 -0.07,-0.03l-0.51 0.1c-0.03,0.01 -0.05,0.03 -0.06,0.06 -0.03,0.13 -0.2,0.31 -0.29,0.39l-0.63 -0.2c-0.02,-0.13 -0.05,-0.38 0,-0.5 0.02,-0.03 0.01,-0.06 -0.01,-0.08l-0.34 -0.39z"/>
  <path class="fil10" d="M21.5 14.18c-0.35,0.07 -0.69,-0.15 -0.76,-0.5 -0.07,-0.34 0.16,-0.68 0.5,-0.75 0.35,-0.07 0.69,0.16 0.76,0.5 0.07,0.35 -0.16,0.68 -0.5,0.75zm-0.14 0.62c0,-0.02 0.02,-0.04 0.04,-0.04l0.4 -0.08c0.03,-0.01 0.05,0 0.06,0.02 0.07,0.09 0.25,0.17 0.34,0.2l0.39 -0.35c-0.01,-0.1 -0.07,-0.28 -0.15,-0.36 -0.02,-0.02 -0.02,-0.04 -0.02,-0.06l0.14 -0.39c0,-0.02 0.02,-0.04 0.04,-0.04 0.11,-0.01 0.27,-0.13 0.35,-0.19l-0.11 -0.51c-0.09,-0.04 -0.28,-0.08 -0.39,-0.05 -0.02,0 -0.04,0 -0.06,-0.02l-0.27 -0.31c-0.01,-0.01 -0.02,-0.04 -0.01,-0.06 0.04,-0.1 0.02,-0.29 0,-0.39l-0.49 -0.17c-0.08,0.07 -0.21,0.21 -0.24,0.32 0,0.02 -0.02,0.04 -0.04,0.04l-0.4 0.08c-0.03,0.01 -0.05,0 -0.06,-0.02 -0.07,-0.09 -0.25,-0.17 -0.34,-0.2l-0.39 0.34c0.01,0.1 0.07,0.29 0.15,0.37 0.02,0.01 0.02,0.04 0.01,0.06l-0.13 0.39c0,0.02 -0.02,0.03 -0.04,0.04 -0.11,0.01 -0.27,0.12 -0.35,0.19l0.11 0.51c0.09,0.04 0.28,0.08 0.39,0.05 0.02,-0.01 0.04,0 0.06,0.02l0.27 0.3c0.01,0.02 0.02,0.04 0.01,0.07 -0.04,0.1 -0.02,0.29 0,0.39l0.49 0.17c0.08,-0.07 0.21,-0.21 0.24,-0.32z"/>
  <path class="fil0" d="M26.64 27.87c-0.79,0.16 -1.01,-0.89 -0.21,-1.05 0.78,-0.16 0.99,0.89 0.21,1.05zm-0.75 -1.26c-0.14,-0.23 -0.22,-0.59 -0.13,-0.89 0.16,-0.51 0.72,-0.78 0.61,-1.33 -0.03,-0.13 -0.1,-0.24 -0.2,-0.3 -0.27,-0.16 -0.64,-0.01 -0.9,0.15 -0.16,0.11 -0.31,0.25 -0.44,0.42l-0.2 -0.96c0.3,-0.28 0.69,-0.45 1.08,-0.53 0.81,-0.16 1.48,0.07 1.64,0.88 0.15,0.74 -0.31,1.13 -0.6,1.54 -0.17,0.23 -0.19,0.39 -0.15,0.58 0.02,0.09 0.07,0.2 0.13,0.27l-0.84 0.17z"/>
  <path class="fil18" d="M28.33 10.88c-1.16,-0.77 -1.48,-2.34 -0.71,-3.51 0.77,-1.16 2.34,-1.48 3.51,-0.71 1.16,0.77 1.48,2.34 0.71,3.51 -0.77,1.16 -2.35,1.48 -3.51,0.71z"/>
  <path class="fil3 str2" d="M28.37 10.82c-1.13,-0.75 -1.44,-2.28 -0.69,-3.41 0.75,-1.13 2.28,-1.44 3.41,-0.69 1.13,0.75 1.44,2.28 0.69,3.41 -0.75,1.13 -2.28,1.44 -3.41,0.69z"/>
  <path class="fil3" d="M31.4 9.89c-0.61,0.93 -1.86,1.18 -2.79,0.57 -0.92,-0.62 -1.18,-1.87 -0.56,-2.79 0.61,-0.93 1.86,-1.18 2.78,-0.57 0.93,0.62 1.18,1.86 0.57,2.79z"/>
  <path class="fil2" d="M28.68 10.36c-0.88,-0.58 -1.12,-1.77 -0.54,-2.64 0.58,-0.88 1.77,-1.12 2.64,-0.54 0.88,0.58 1.12,1.77 0.54,2.64 -0.58,0.88 -1.77,1.12 -2.64,0.54z"/>
  <path class="fil3" d="M28.41 7.77l-0.28 -0.18c-0.05,-0.03 -0.11,-0.02 -0.14,0.02 -0.04,0.05 -0.02,0.11 0.02,0.14l0.29 0.19c0.04,0.04 0.11,0.02 0.14,-0.02 0.03,-0.05 0.02,-0.11 -0.03,-0.15z"/>
  <path class="fil3" d="M28.87 10.06c-0.04,-0.03 -0.11,-0.02 -0.14,0.03l-0.19 0.28c-0.03,0.05 -0.01,0.11 0.03,0.14 0.05,0.04 0.11,0.02 0.14,-0.02l0.19 -0.29c0.03,-0.05 0.02,-0.11 -0.03,-0.14z"/>
  <path class="fil3" d="M31.44 9.79l-0.28 -0.19c-0.05,-0.03 -0.11,-0.02 -0.14,0.03 -0.03,0.04 -0.02,0.11 0.03,0.14l0.28 0.19c0.05,0.03 0.11,0.01 0.14,-0.03 0.03,-0.05 0.02,-0.11 -0.03,-0.14z"/>
  <path class="fil3" d="M30.89 7.03c-0.05,-0.03 -0.11,-0.02 -0.15,0.02l-0.18 0.29c-0.04,0.05 -0.02,0.11 0.02,0.14 0.05,0.03 0.11,0.02 0.15,-0.03l0.18 -0.28c0.03,-0.05 0.02,-0.11 -0.02,-0.14z"/>
  <path class="fil3" d="M31.99 7.14l0.35 -0.2c0.03,-0.02 0.06,-0.01 0.08,0.02l0.23 0.4c0.01,0.03 0,0.07 -0.03,0.08l-0.34 0.2c-0.03,0.02 -0.07,0.01 -0.09,-0.02l-0.22 -0.4c-0.02,-0.03 -0.01,-0.06 0.02,-0.08z"/>
  <path class="fil3" d="M30.37 6.08l0.04 -0.4c0.01,-0.03 -0.02,-0.06 -0.05,-0.07l-0.45 -0.05c-0.04,-0.01 -0.07,0.02 -0.07,0.05l-0.05 0.4c0,0.03 0.02,0.06 0.05,0.06l0.46 0.06c0.03,0 0.06,-0.02 0.07,-0.05z"/>
  <path class="fil3" d="M31.18 6.12c-0.02,-0.02 -0.03,-0.05 -0.01,-0.08l0.16 -0.24c0.01,-0.03 0.05,-0.03 0.08,-0.02l0.49 0.33c0.02,0.02 0.03,0.05 0.01,0.08l-0.16 0.24c-0.01,0.02 -0.05,0.03 -0.08,0.01l-0.49 -0.32z"/>
  <path class="fil3" d="M31.18 6.29c-0.16,-0.21 -0.18,-0.5 -0.03,-0.74 0.2,-0.29 0.59,-0.37 0.88,-0.18 0.29,0.2 0.37,0.59 0.18,0.88 -0.16,0.23 -0.44,0.33 -0.7,0.26l-0.08 0.13c0.33,0.11 0.7,0 0.9,-0.3 0.24,-0.37 0.14,-0.85 -0.22,-1.09 -0.36,-0.24 -0.84,-0.14 -1.08,0.22 -0.2,0.3 -0.16,0.69 0.07,0.95l0.08 -0.13z"/>
  <path class="fil3" d="M31.15 6.62c0.06,0.04 0.12,0.08 0.17,0.12l0.23 -0.35 -0.27 -0.18 -0.23 0.35c0.04,0.02 0.07,0.04 0.1,0.06z"/>
  <path class="fil3" d="M29.89 8.87c-0.06,0.09 -0.17,0.11 -0.26,0.05 -0.09,-0.05 -0.11,-0.17 -0.05,-0.25 0.05,-0.09 0.17,-0.11 0.25,-0.06 0.09,0.06 0.11,0.17 0.06,0.26z"/>
  <path class="fil3" d="M31.1 8.09l-1.34 0.74c-0.03,0.02 -0.07,0 -0.09,-0.03 -0.02,-0.03 -0.01,-0.08 0.02,-0.1 0.01,0 -0.05,0.03 1.41,-0.61z"/>
  <path class="fil3" d="M29.85 10.3l-0.19 -1.52c0,-0.04 0.02,-0.07 0.06,-0.07 0.04,-0.01 0.07,0.02 0.08,0.06 0,0 0,-0.07 0.05,1.53z"/>
  <path class="fil3" d="M29.8 8.81c-0.03,0.03 -0.07,0.04 -0.11,0.02 -0.03,-0.02 -0.04,-0.07 -0.02,-0.1 0.02,-0.04 0.07,-0.05 0.1,-0.03 0.04,0.03 0.05,0.08 0.03,0.11z"/>
  <path class="fil12" d="M52.85 4.6c0.01,0.08 -0.03,0.13 -0.12,0.15 -0.1,0.02 -0.14,0.03 -0.18,-0.06 -0.25,-0.55 -0.4,-0.9 -0.43,-1.06 -0.36,-1.51 -0.43,-1.65 -0.37,-1.66 0.08,-0.02 0.22,-0.02 0.31,-0.04 0.08,-0.02 0.21,-0.08 0.29,-0.11 0.05,-0.01 0.06,0.1 0.14,0.42 0.3,1.15 0.3,1.75 0.36,2.36zm0.19 1.4c-0.22,0.05 -0.4,-0.11 -0.45,-0.33 -0.1,-0.41 0.29,-0.6 0.54,-0.43 0.26,0.19 0.25,0.67 -0.09,0.76z"/>
  <path class="fil12" d="M10.37 20.65l-1.2 -1.21c-0.2,-0.2 -0.2,-0.52 0,-0.72l1.2 -1.2c0.2,-0.2 0.52,-0.2 0.72,0l1.21 1.2c0.2,0.2 0.2,0.52 0,0.72l-1.21 1.21c-0.2,0.2 -0.52,0.2 -0.72,0z"/>
  <path class="fil12" d="M92.39 53.89l-1.2 -1.21c-0.2,-0.19 -0.2,-0.52 0,-0.72l1.2 -1.2c0.2,-0.2 0.53,-0.2 0.72,0l1.21 1.2c0.2,0.2 0.2,0.53 0,0.72l-1.21 1.21c-0.19,0.2 -0.52,0.2 -0.72,0z"/>
  <polygon class="fil12" points="6.03,45.64 3.51,45.78 3.92,47.28 0.79,48.09 4.55,48.04 4.25,46.35 6.91,46.51 "/>
 </g>
</svg>
